<svg height="512pt" viewBox="0 0 512 512" width="512pt" xmlns="http://www.w3.org/2000/svg"><path d="m512 256c0 141.386719-114.613281 256-256 256s-256-114.613281-256-256 114.613281-256 256-256 256 114.613281 256 256zm0 0" fill="#19cffc"/><path d="m273.140625 511.414062c125.074219-8.269531 225.589844-106.351562 237.636719-230.355468l-75.777344-75.777344-7.226562 11.972656-98.824219-98.824218-246.015625 202.78125zm0 0" fill="#4ab8f7"/><path d="m368.078125 354c49.386719 0 89.417969-40.035156 89.417969-89.421875 0-49.382813-40.03125-89.417969-89.417969-89.417969-2.414063 0-4.804687.097656-7.171875.285156-9.308594-48.109374-51.644531-84.445312-102.476562-84.445312-39.585938 0-74.027344 22.035156-91.726563 54.507812-2.578125-.191406-5.183594-.289062-7.8125-.289062-57.652344 0-104.390625 46.734375-104.390625 104.390625.003906 57.652344 46.738281 104.390625 104.390625 104.390625zm0 0" fill="#fff"/><path d="m368.078125 175.160156c-2.414063 0-4.804687.097656-7.171875.285156-9.308594-48.109374-51.644531-84.445312-102.476562-84.445312-.816407 0-1.621094.023438-2.429688.042969v262.957031h112.078125c49.386719 0 89.417969-40.035156 89.417969-89.421875 0-49.382813-40.03125-89.417969-89.417969-89.417969zm0 0" fill="#e9edf5"/></svg>