<svg height="512pt" viewBox="0 0 512 512" width="512pt" xmlns="http://www.w3.org/2000/svg"><path d="m512 256c0 141.386719-114.613281 256-256 256s-256-114.613281-256-256 114.613281-256 256-256 256 114.613281 256 256zm0 0" fill="#fdba12"/><path d="m512 256c0-3.421875-.085938-6.820312-.21875-10.210938l-95.035156-95.609374-80.851563 109.539062-177.894531-178.71875v411.554688c30.1875 12.519531 63.28125 19.445312 98 19.445312 141.386719 0 256-114.613281 256-256zm0 0" fill="#ffa300"/><g fill="#fff"><path d="m220.363281 327.40625h58.417969v17h-58.417969zm0 0"/><path d="m298.785156 327.40625h114.1875v17h-114.1875zm0 0"/><path d="m314.222656 444.195312h-25.714844v-17h25.714844c14.039063 0 25.457032-11.417968 25.457032-25.453124 0-14.035157-11.417969-25.457032-25.457032-25.457032h-106.566406v-17h106.566406c23.410156 0 42.457032 19.046875 42.457032 42.457032 0 23.410156-19.046876 42.453124-42.457032 42.453124zm0 0"/><path d="m408.5 266.289062c12.03125 0 21.789062-26.992187 21.789062-60.289062s-9.757812-60.289062-21.789062-60.289062l-189-40.710938v202zm0 0"/></g><path d="m219.5 204.488281v102.511719l189-40.710938c12.03125 0 21.789062-26.992187 21.789062-60.289062 0-.507812-.011718-1.007812-.015624-1.511719zm0 0" fill="#e9edf5"/><path d="m256 206c0-55.78125-16.339844-101-36.5-101s-36.5 45.21875-36.5 101 16.339844 101 36.5 101 36.5-45.21875 36.5-101zm0 0" fill="#ff6155"/><path d="m183.007812 204.488281c-.003906.503907-.007812 1.007813-.007812 1.511719 0 55.78125 16.34375 101 36.5 101s36.5-45.21875 36.5-101c0-.503906-.003906-1.007812-.007812-1.511719zm0 0" fill="#f92814"/><path d="m356 206c0 29.296875-4.507812 55.671875-11.710938 74.121094l32.480469-6.996094c5.742188-17.84375 9.230469-41.355469 9.230469-67.125s-3.488281-49.28125-9.230469-67.125l-32.480469-6.996094c7.203126 18.449219 11.710938 44.824219 11.710938 74.121094zm0 0" fill="#ff6155"/><path d="m355.984375 204.488281c.003906.507813.015625 1.003907.015625 1.511719 0 29.296875-4.507812 55.671875-11.710938 74.121094l32.480469-6.996094c5.742188-17.84375 9.230469-41.355469 9.230469-67.125 0-.507812-.011719-1.007812-.011719-1.511719zm0 0" fill="#f92814"/><path d="m219.5 105h-74.5v17h94.769531c-5.796875-10.734375-12.769531-17-20.269531-17zm0 0" fill="#e9edf5"/><path d="m219.5 307h-74.5v-17h94.769531c-5.796875 10.734375-12.769531 17-20.269531 17zm0 0" fill="#dce1eb"/><path d="m132 479.996094c8.390625 4.65625 17.066406 8.855468 26 12.558594v-411.554688h-26zm0 0" fill="#414952"/><path d="m158 81h-13.546875v405.460938c4.449219 2.15625 8.960937 4.191406 13.546875 6.09375zm0 0" fill="#333940"/><path d="m183 393.242188h67v17h-67zm0 0" fill="#fff"/></svg>