<svg height="512pt" viewBox="0 0 512 512" width="512pt" xmlns="http://www.w3.org/2000/svg"><path d="m512 256c0 141.386719-114.613281 256-256 256s-256-114.613281-256-256 114.613281-256 256-256 256 114.613281 256 256zm0 0" fill="#414952"/><g fill="#333940"><path d="m494.390625 349.480469-101.753906-101.753907-11.8125 12.957032-116.730469-116.726563-.417969.746094-55.683593-55.683594 10.75 51.410157 42.503906 42.503906-21.71875 21.71875-60.699219-60.695313-.433594.730469-55.667969-55.667969 10.75 51.410157 85.136719 85.136718-147.144531 103.609375-7.808594 37.859375-.589844 7.882813 125.71875 128.148437c21.421876 5.8125 43.949219 8.933594 67.210938 8.933594 108.394531 0 201.050781-67.371094 238.390625-162.519531zm0 0"/><path d="m349.359375 143.957031.625 1.789063-56.726563-56.726563 10.75 51.410157 195.308594 195.308593c3.542969-10.816406 6.394532-21.945312 8.480469-33.34375zm0 0"/><path d="m389.273438 140.429688 122.625 122.625c.066406-2.34375.101562-4.695313.101562-7.054688 0-12.234375-.878906-24.261719-2.535156-36.039062l-130.945313-130.941407zm0 0"/></g><path d="m247.589844 511.847656c2.792968.089844 5.59375.152344 8.410156.152344s5.617188-.0625 8.410156-.152344v-343.253906h-16.820312zm0 0" fill="#4a7aff"/><path d="m256 168.59375v343.40625c2.816406 0 5.617188-.0625 8.410156-.152344v-343.253906zm0 0" fill="#2864f0"/><path d="m449.046875 377.230469c-.011719-.253907-.027344-.507813-.039063-.761719.007813.253906.015626.507812.019532.761719zm0 0" fill="#fdba12"/><path d="m111.214844 333.144531c26.414062 0 47.859375 19.679688 48.246094 44.085938h.035156c.382812-24.40625 21.828125-44.085938 48.242187-44.085938 26.414063 0 47.859375 19.679688 48.242188 44.085938h.035156c.386719-24.40625 21.832031-44.085938 48.246094-44.085938 26.414062 0 47.859375 19.679688 48.242187 44.085938h.035156c.382813-24.40625 21.828126-44.085938 48.242188-44.085938 25.574219 0 46.492188 18.449219 48.144531 41.777344-4.871093-94.90625-89.367187-189.855469-192.925781-189.855469s-188.054688 94.949219-192.929688 189.851563c1.652344-23.324219 22.570313-41.773438 48.144532-41.773438zm0 0" fill="#fdba12"/><path d="m256 185.066406v192.164063h.019531c.382813-24.410157 21.828125-44.089844 48.242188-44.089844 26.414062 0 47.859375 19.679687 48.242187 44.089844h.035156c.386719-24.410157 21.828126-44.089844 48.242188-44.089844 25.578125 0 46.492188 18.453125 48.144531 41.777344-4.871093-94.902344-89.367187-189.851563-192.925781-189.851563zm0 0" fill="#ffa300"/><path d="m159.460938 377.230469h.035156c.382812-24.410157 21.828125-44.089844 48.242187-44.089844 26.414063 0 47.859375 19.679687 48.242188 44.089844h.035156c.386719-24.410157 21.832031-44.089844 48.246094-44.089844 26.414062 0 47.859375 19.679687 48.242187 44.089844h.035156c.046876-3.078125.429688-6.078125 1.117188-8.976563-4.253906-91.753906-46.347656-183.1875-97.660156-183.1875-51.308594 0-93.402344 91.4375-97.65625 183.1875.6875 2.898438 1.070312 5.898438 1.121094 8.976563zm0 0" fill="#ff6155"/><path d="m256 185.066406v192.164063h.019531c.382813-24.410157 21.828125-44.089844 48.242188-44.089844 26.414062 0 47.859375 19.679687 48.242187 44.089844h.035156c.050782-3.078125.433594-6.078125 1.117188-8.976563-4.253906-91.753906-46.347656-183.1875-97.65625-183.1875zm0 0" fill="#f92814"/><path d="m281.585938 94.742188 11.671874-5.726563 22.417969 45.683594-11.667969 5.726562zm0 0" fill="#e9edf5"/><path d="m111.058594 94.746094 11.667968-5.730469 22.421876 45.683594-11.667969 5.730469zm0 0" fill="#fff"/><path d="m196.320312 94.746094 11.671876-5.730469 22.421874 45.683594-11.671874 5.726562zm0 0" fill="#fff"/><path d="m366.847656 94.742188 11.671875-5.726563 22.421875 45.683594-11.671875 5.726562zm0 0" fill="#e9edf5"/><path d="m337.6875 149.683594 11.671875-5.730469 22.421875 45.683594-11.671875 5.730469zm0 0" fill="#e9edf5"/><path d="m167.160156 149.683594 11.671875-5.730469 22.421875 45.683594-11.671875 5.726562zm0 0" fill="#fff"/><path d="m252.425781 149.683594 11.667969-5.726563 22.421875 45.679688-11.667969 5.730469zm0 0" fill="#fff"/><path d="m286.515625 189.640625-22.421875-45.683594-8.09375 3.972657v9.039062l18.847656 38.398438zm0 0" fill="#e9edf5"/></svg>