<svg height="512pt" viewBox="0 0 512 512" width="512pt" xmlns="http://www.w3.org/2000/svg"><path d="m512 256c0 141.386719-114.613281 256-256 256s-256-114.613281-256-256 114.613281-256 256-256 256 114.613281 256 256zm0 0" fill="#ff6155"/><path d="m511.945312 260.285156-91.367187-91.371094-10.152344 7.539063-83.308593-83.308594-220.816407 192.78125 109.984375 109.984375-36.5 62.304688 52.699219 52.699218c7.746094.707032 15.585937 1.085938 23.515625 1.085938 139.953125 0 253.65625-112.308594 255.945312-251.714844zm0 0" fill="#f92814"/><path d="m302.125 395.339844 41.164062-145.496094-92.609374 92.609375-29.734376-29.730469-41.160156 145.492188 92.609375-92.609375zm0 0" fill="#fdba12"/><path d="m256.34375 336.789062v44.867188l16.050781-16.050781 29.730469 29.734375 41.164062-145.496094zm0 0" fill="#ffa300"/><path d="m359.457031 306.9375c45.589844 0 82.542969-36.957031 82.542969-82.542969 0-45.585937-36.953125-82.542969-82.542969-82.542969-2.226562 0-4.433593.089844-6.617187.265626-8.59375-44.414063-47.675782-77.953126-94.597656-77.953126-36.542969 0-68.332032 20.34375-84.667969 50.316407-2.382813-.175781-4.789063-.265625-7.214844-.265625-53.21875 0-96.359375 43.140625-96.359375 96.359375s43.140625 96.363281 96.359375 96.363281zm0 0" fill="#414952"/><path d="m359.457031 141.851562c-2.226562 0-4.433593.089844-6.617187.265626-8.59375-44.414063-47.675782-77.953126-94.597656-77.953126-.636719 0-1.265626.023438-1.898438.035157v242.738281h103.113281c45.589844 0 82.542969-36.957031 82.542969-82.542969 0-45.585937-36.953125-82.542969-82.542969-82.542969zm0 0" fill="#333940"/></svg>