<svg height="476pt" viewBox="0 0 476.4 476" width="476pt" xmlns="http://www.w3.org/2000/svg"><path d="m476.398438 238.398438c0 131.554687-106.644532 238.203124-238.199219 238.203124-131.554688 0-238.199219-106.648437-238.199219-238.203124 0-131.550782 106.644531-238.199219 238.199219-238.199219 131.554687 0 238.199219 106.648437 238.199219 238.199219zm0 0" fill="#4a7aff"/><path d="m200.101562 427.800781 48.398438 48.398438c9.199219-.398438 18.199219-1.300781 27.101562-2.699219l-65.300781-65.300781zm0 0" fill="#2864f0"/><path d="m476.398438 238.398438c0-11.796876-.898438-23.398438-2.5-34.699219l-127.597657-127.5-227.402343 19.5 34.703124 34.699219-29.703124 2.203124 34.902343 34.898438-28.402343 2 34.601562 34.601562-19.699219 2.296876 35.597657 35.601562-16.097657 1.300781 35.699219 35.699219-12.5 1.199219 31.898438 31.902343-19.796876 5 32.199219 32.199219-32.199219 4.699219 23.199219 23.199219-28.800781 13.699219 82.398438 82.402343c113.203124-18.5 199.5-116.601562 199.5-234.902343zm0 0" fill="#2864f0"/><g fill="#fff"><path d="m118.898438 76.199219h227.5v19.5h-227.5zm0 0"/><path d="m123.898438 113.101562h208.402343v19.5h-208.402343zm0 0"/><path d="m130.398438 150h174v19.5h-174zm0 0"/><path d="m145.300781 186.898438h120.898438v19.5h-120.898438zm0 0"/><path d="m164.800781 223.800781h119.097657v19.5h-119.097657zm0 0"/><path d="m188.101562 260.699219h116.296876v19.5h-116.296876zm0 0"/><path d="m200.101562 297.601562h83.699219v19.5h-83.699219zm0 0"/><path d="m200.101562 334.5h53v19.5h-53zm0 0"/></g><path d="m237.898438 76.199219h108.5v19.5h-108.5zm0 0" fill="#e9edf5"/><path d="m237.898438 113.101562h94.402343v19.5h-94.402343zm0 0" fill="#e9edf5"/><path d="m237.898438 150h66.5v19.5h-66.5zm0 0" fill="#e9edf5"/><path d="m237.898438 186.898438h28.300781v19.5h-28.300781zm0 0" fill="#e9edf5"/><path d="m237.898438 223.800781h46v19.5h-46zm0 0" fill="#e9edf5"/><path d="m237.898438 260.699219h66.5v19.5h-66.5zm0 0" fill="#e9edf5"/><path d="m237.898438 297.601562h46v19.5h-46zm0 0" fill="#e9edf5"/><path d="m237.898438 334.5h15.300781v19.5h-15.300781zm0 0" fill="#e9edf5"/><path d="m194.601562 371.398438h40.898438v19.5h-40.898438zm0 0" fill="#fff"/><path d="m200.101562 408.300781h10.199219v19.5h-10.199219zm0 0" fill="#fff"/></svg>