<svg height="512pt" viewBox="0 0 512 512" width="512pt" xmlns="http://www.w3.org/2000/svg"><path d="m512 256c0 141.386719-114.613281 256-256 256s-256-114.613281-256-256 114.613281-256 256-256 256 114.613281 256 256zm0 0" fill="#414952"/><path d="m128.90625 413.378906-36.09375 39.867188c44.300781 36.695312 101.167969 58.753906 163.1875 58.753906 123.847656 0 227.148438-87.945312 250.871094-204.792969l-262.800782-262.800781-5.445312 6.84375-19.433594 29.757812 24.113282 123.292969h-62.898438l45.839844 45.835938-22.820313 1.796875-68.636719-68.632813-74.8125 21 54.628907 54.628907-42.605469 3.351562 37.257812 37.257812-53.027343 5.289063 25.699219 25.699219-25.699219 10.175781zm0 0" fill="#333940"/><path d="m92.8125 453.246094 241.300781-241.300782-11.894531-11.894531-242.023438 242.023438c4.082032 3.859375 8.285157 7.585937 12.617188 11.171875zm0 0" fill="#4a7aff"/><path d="m86.234375 447.601562c2.160156 1.917969 4.351563 3.800782 6.578125 5.644532l241.300781-241.300782-6.109375-6.113281zm0 0" fill="#2864f0"/><path d="m245.46875 42.859375c-.15625.167969-.304688.339844-.460938.507813.15625-.164063.3125-.332032.472657-.496094zm0 0" fill="#fdba12"/><path d="m432.503906 286.039062c-16.820312-16.820312-17.945312-43.003906-2.648437-58.792968l-.019531-.019532c-15.789063 15.296876-41.972657 14.171876-58.792969-2.648437-16.816407-16.816406-17.941407-43.003906-2.644531-58.789063l-.023438-.023437c-15.785156 15.296875-41.972656 14.171875-58.789062-2.644531-16.820313-16.820313-17.945313-43.003906-2.648438-58.792969l-.023438-.019531c-15.785156 15.296875-41.96875 14.171875-58.789062-2.648438-16.285156-16.285156-17.855469-41.347656-4.054688-57.253906-57.324218 63.53125-63.976562 177.789062 1.960938 243.726562s180.195312 59.28125 243.726562 1.960938c-15.90625 13.800781-40.96875 12.226562-57.253906-4.054688zm0 0" fill="#fdba12"/><path d="m432.503906 286.039062c-16.820312-16.820312-17.945312-43.003906-2.648437-58.792968l-.019531-.019532c-15.789063 15.296876-41.972657 14.171876-58.792969-2.648437-16.816407-16.816406-17.941407-43.003906-2.644531-58.789063l-.023438-.023437c-.820312.792969-1.675781 1.535156-2.546875 2.242187l-119.960937 119.957032c.054687.054687.109374.113281.164062.167968 65.9375 65.9375 180.195312 59.28125 243.726562 1.960938-15.902343 13.800781-40.96875 12.226562-57.253906-4.054688zm0 0" fill="#ffa300"/><path d="m490.796875 289.15625c.167969-.15625.339844-.304688.507813-.460938l-.011719-.011718c-.164063.160156-.332031.316406-.496094.472656zm0 0" fill="#fdba12"/><path d="m429.855469 227.246094-.019531-.019532c-15.789063 15.296876-41.972657 14.171876-58.792969-2.648437-16.816407-16.816406-17.941407-43.003906-2.644531-58.789063l-.023438-.023437c-15.785156 15.296875-41.972656 14.171875-58.789062-2.644531-16.820313-16.820313-17.945313-43.003906-2.648438-58.792969l-.023438-.019531c-1.988281 1.925781-4.144531 3.59375-6.425781 5.003906-55.710937 61.128906-87.128906 146.152344-54.457031 178.820312 32.667969 32.671876 117.691406 1.253907 178.820312-54.457031 1.410157-2.285156 3.078126-4.4375 5.003907-6.429687zm0 0" fill="#ff6155"/><path d="m429.835938 227.226562c-15.789063 15.296876-41.972657 14.171876-58.792969-2.648437-16.816407-16.816406-17.941407-43.003906-2.644531-58.789063l-.023438-.023437c-.820312.792969-1.675781 1.535156-2.546875 2.242187l-119.957031 119.957032c.054687.054687.105468.113281.160156.167968 32.667969 32.671876 117.691406 1.253907 178.820312-54.457031 1.410157-2.285156 3.078126-4.4375 5.003907-6.429687zm0 0" fill="#f92814"/><path d="m225.175781 304.828125h-168.945312v-21h168.945312c21.925781 0 39.761719-17.839844 39.761719-39.765625s-17.835938-39.765625-39.761719-39.765625h-44.769531v-21h44.769531c33.503907 0 60.761719 27.261719 60.761719 60.765625s-27.257812 60.765625-60.761719 60.765625zm0 0" fill="#fff"/><path d="m285.792969 248.039062-56.640625 56.644532c30.339844-1.972656 54.671875-26.300782 56.640625-56.644532zm0 0" fill="#e9edf5"/><path d="m56.230469 319.703125h48.148437v21h-48.148437zm0 0" fill="#fff"/><path d="m134.789062 319.703125h173.59375v21h-173.59375zm0 0" fill="#fff"/><path d="m193.132812 340.703125h115.25v-21h-94.25zm0 0" fill="#e9edf5"/><g fill="#fff"><path d="m72 241.28125h149.585938v21h-149.585938zm0 0"/><path d="m59.976562 183.296875h74.8125v21h-74.8125zm0 0"/></g></svg>