<svg height="512pt" viewBox="0 0 512 512" width="512pt" xmlns="http://www.w3.org/2000/svg"><path d="m512 256c0 141.386719-114.613281 256-256 256s-256-114.613281-256-256 114.613281-256 256-256 256 114.613281 256 256zm0 0" fill="#4a7aff"/><path d="m309.660156 202.257812-127.757812-127.757812-68.394532 270.632812 165.796876 165.800782c95.996093-8.664063 176.710937-70.304688 212.65625-155.472656l-181.460938-181.460938zm0 0" fill="#2864f0"/><path d="m286.808594 265.597656c0 57.933594-46.96875 104.902344-104.90625 104.902344-57.933594 0-104.902344-46.96875-104.902344-104.902344 0-57.9375 104.902344-191.097656 104.902344-191.097656s104.90625 133.160156 104.90625 191.097656zm0 0" fill="#fff"/><path d="m181.75 370.496094c.050781 0 .101562.003906.152344.003906 57.9375 0 104.90625-46.96875 104.90625-104.902344 0-57.9375-104.90625-191.097656-104.90625-191.097656zm0 0" fill="#e9edf5"/><path d="m403 342.5c0 51.085938-41.414062 92.5-92.5 92.5s-92.5-41.414062-92.5-92.5 92.5-168.5 92.5-168.5 92.5 117.414062 92.5 168.5zm0 0" fill="#96e8ff"/><path d="m310.5 174v261c51.085938 0 92.5-41.414062 92.5-92.5s-92.5-168.5-92.5-168.5zm0 0" fill="#80dbff"/></svg>