<svg height="512pt" viewBox="0 0 512 512" width="512pt" xmlns="http://www.w3.org/2000/svg"><path d="m512 256c0 141.386719-114.613281 256-256 256s-256-114.613281-256-256 114.613281-256 256-256 256 114.613281 256 256zm0 0" fill="#4a7aff"/><path d="m511.746094 267.035156-115.113282-117.539062-166.863281 37.402344-166.921875 157.441406 166.253906 166.257812c8.84375.921875 17.8125 1.402344 26.898438 1.402344 137.6875 0 249.96875-108.699219 255.746094-244.964844zm0 0" fill="#2864f0"/><path d="m256 90c-107.511719 0-194.789062 86.566406-195.972656 193.800781h34.644531c1.179687-88.101562 72.949219-159.15625 161.328125-159.15625s160.148438 71.054688 161.328125 159.15625h34.644531c-1.183594-107.234375-88.460937-193.800781-195.972656-193.800781zm0 0" fill="#ff6155"/><path d="m256.34375 90.003906v34.644532c88.21875.183593 159.804688 71.164062 160.984375 159.148437h34.644531c-1.183594-107.117187-88.277344-193.609375-195.628906-193.792969zm0 0" fill="#f92814"/><path d="m256 124.644531c-88.378906 0-160.148438 71.054688-161.328125 159.15625h38.835937c1.175782-66.652343 55.5625-120.320312 122.492188-120.320312s121.316406 53.667969 122.492188 120.320312h38.835937c-1.179687-88.101562-72.949219-159.15625-161.328125-159.15625zm0 0" fill="#fdba12"/><path d="m256.34375 124.648438v38.835937c66.769531.179687 120.976562 53.777344 122.148438 120.3125h38.835937c-1.179687-87.984375-72.765625-158.964844-160.984375-159.148437zm0 0" fill="#ffa300"/><path d="m256 163.480469c-66.929688 0-121.316406 53.667969-122.492188 120.320312h41.964844c1.171875-43.484375 36.761719-78.382812 80.527344-78.382812s79.355469 34.894531 80.527344 78.382812h41.964844c-1.175782-66.652343-55.5625-120.320312-122.492188-120.320312zm0 0" fill="#19cffc"/><path d="m256.34375 163.484375v41.941406c43.605469.183594 79.015625 35.003907 80.183594 78.375h41.964844c-1.171876-66.539062-55.378907-120.132812-122.148438-120.316406zm0 0" fill="#4ab8f7"/><path d="m182.265625 352.796875c21.898437 0 39.652344-17.753906 39.652344-39.65625 0-21.898437-17.753907-39.652344-39.652344-39.652344-1.074219 0-2.132813.042969-3.179687.128907-4.128907-21.335938-22.90625-37.449219-45.445313-37.449219-17.554687 0-32.828125 9.773437-40.675781 24.171875-1.144532-.082032-2.296875-.128906-3.464844-.128906-25.566406 0-46.289062 20.726562-46.289062 46.292968s20.722656 46.289063 46.289062 46.289063h92.765625zm0 0" fill="#fff"/><path d="m433.847656 352.796875c21.898438 0 39.652344-17.753906 39.652344-39.65625 0-21.898437-17.753906-39.652344-39.652344-39.652344-1.070312 0-2.132812.042969-3.179687.128907-4.128907-21.335938-22.902344-37.449219-45.445313-37.449219-17.554687 0-32.824218 9.773437-40.671875 24.171875-1.144531-.082032-2.300781-.128906-3.464843-.128906-25.566407 0-46.292969 20.726562-46.292969 46.292968s20.726562 46.289063 46.292969 46.289063h92.761718zm0 0" fill="#e9edf5"/></svg>