<svg height="512pt" viewBox="0 0 512 512" width="512pt" xmlns="http://www.w3.org/2000/svg"><path d="m512 256c0 141.386719-114.613281 256-256 256s-256-114.613281-256-256 114.613281-256 256-256 256 114.613281 256 256zm0 0" fill="#ff6155"/><path d="m512 256c0-7.757812-.363281-15.429688-1.039062-23.011719l-154.117188-154.117187-199.5625 356.128906 75.984375 75.984375c7.492187.660156 15.070313 1.015625 22.734375 1.015625 141.386719 0 256-114.613281 256-256zm0 0" fill="#f92814"/><path d="m341.253906 439.613281h-170.507812c-12.144532 0-21.992188-9.847656-21.992188-21.996093v-323.234376c0-12.148437 9.847656-21.996093 21.992188-21.996093h170.503906c12.148438 0 21.992188 9.847656 21.992188 21.996093v323.238282c.003906 12.144531-9.84375 21.992187-21.988282 21.992187zm0 0" fill="#414952"/><path d="m341.253906 72.386719h-85.609375v367.226562h85.609375c12.144532 0 21.992188-9.847656 21.992188-21.996093v-323.238282c0-12.144531-9.847656-21.992187-21.992188-21.992187zm0 0" fill="#333940"/><path d="m167.5 95h177v322h-177zm0 0" fill="#4a7aff"/><path d="m255.644531 95h88.855469v322h-88.855469zm0 0" fill="#2864f0"/><path d="m167.5 290h177v127h-177zm0 0" fill="#fdba12"/><path d="m255.644531 290h88.855469v127h-88.855469zm0 0" fill="#ffa300"/><path d="m297.214844 230c18.164062 0 32.886718-14.722656 32.886718-32.882812 0-18.164063-14.722656-32.886719-32.886718-32.886719-.886719 0-1.765625.039062-2.636719.105469-3.421875-17.691407-18.992187-31.054688-37.683594-31.054688-14.558593 0-27.222656 8.105469-33.730469 20.046875-.949218-.070313-1.90625-.109375-2.875-.109375-21.199218 0-38.386718 17.1875-38.386718 38.390625s17.1875 38.386719 38.386718 38.386719h76.925782zm0 0" fill="#fff"/><path d="m297.214844 164.234375c-.886719 0-1.765625.035156-2.636719.105469-3.421875-17.695313-18.992187-31.058594-37.683594-31.058594-.421875 0-.835937.03125-1.25.042969v96.675781h41.574219c18.160156 0 32.882812-14.722656 32.882812-32.882812 0-18.164063-14.722656-32.882813-32.886718-32.882813zm0 0" fill="#e9edf5"/><path d="m194 363.945312h51.445312v18h-51.445312zm0 0" fill="#fff"/><path d="m279.339844 399.5h-18v-58.164062l-14.257813 12.472656-11.851562-13.546875 29.183593-25.535157 14.925782 6.773438zm0 0" fill="#fff"/><g fill="#e9edf5"><path d="m264.414062 314.726562-8.769531 7.675782v23.917968l5.695313-4.984374v58.164062h18v-78zm0 0"/><path d="m310.5 342.5c-11.578125 0-21-9.421875-21-21s9.421875-21 21-21 21 9.421875 21 21-9.421875 21-21 21zm0-28c-3.859375 0-7 3.140625-7 7s3.140625 7 7 7 7-3.140625 7-7-3.140625-7-7-7zm0 0"/></g></svg>