<svg height="512pt" viewBox="0 0 512 512" width="512pt" xmlns="http://www.w3.org/2000/svg"><path d="m512 256c0 141.386719-114.613281 256-256 256s-256-114.613281-256-256 114.613281-256 256-256 256 114.613281 256 256zm0 0" fill="#4a7aff"/><path d="m403.730469 465.089844c65.503906-46.363282 108.269531-122.730469 108.269531-209.089844 0-13.894531-1.121094-27.523438-3.253906-40.816406l-51.21875-51.214844-207.527344 76.882812zm0 0" fill="#2864f0"/><path d="m69.597656 203.554688c-32.945312 35.75-53.15625 81.125-57.914062 129.109374 17.417968 55.558594 53.261718 102.960938 100.375 135.054688h202.277344v-113.054688c0-55.992187 21.066406-109.933593 59.011718-151.109374l36.480469-39.585938h-303.75zm0 0" fill="#80dbff"/><path d="m255.644531 163.96875v303.75h58.691407v-113.054688c0-55.992187 21.066406-109.933593 59.011718-151.109374l36.480469-39.585938zm0 0" fill="#19cffc"/><path d="m285.476562 203.554688 36.480469-39.585938h-120.929687l-36.480469 39.585938c-37.945313 41.175781-59.011719 95.117187-59.011719 151.109374v72.09375l120.929688 40.960938v-113.054688c0-55.992187 21.066406-109.9375 59.011718-151.109374zm0 0" fill="#96e8ff"/><path d="m321.957031 163.96875h-66.3125v80.441406c8.304688-14.597656 18.28125-28.320312 29.832031-40.855468zm0 0" fill="#80dbff"/><path d="m9.546875 325.472656c30.277344 107.625 129.148437 186.527344 246.453125 186.527344s216.175781-78.902344 246.453125-186.527344zm0 0" fill="#19cffc"/><path d="m255.644531 325.472656v186.523438c.117188 0 .234375.003906.355469.003906 117.304688 0 216.175781-78.902344 246.453125-186.527344zm0 0" fill="#4ab8f7"/><path d="m105.535156 163.96875c1.722656 24.800781 22.375 44.386719 47.613282 44.386719 12.359374 0 23.617187-4.695313 32.097656-12.394531 8.476562 7.699218 19.738281 12.394531 32.09375 12.394531 12.355468 0 23.617187-4.695313 32.09375-12.394531 8.480468 7.699218 19.742187 12.394531 32.097656 12.394531s23.617188-4.695313 32.09375-12.394531c8.476562 7.699218 19.738281 12.394531 32.09375 12.394531s23.617188-4.695313 32.097656-12.394531c8.476563 7.699218 19.738282 12.394531 32.09375 12.394531 25.238282 0 45.890625-19.585938 47.617188-44.386719zm0 0" fill="#cff9ff"/><path d="m255.644531 163.96875v36.753906c7.457031 4.824219 16.34375 7.632813 25.886719 7.632813 12.355469 0 23.617188-4.695313 32.09375-12.394531 8.480469 7.699218 19.738281 12.394531 32.097656 12.394531 12.355469 0 23.617188-4.695313 32.09375-12.394531 8.476563 7.699218 19.738282 12.394531 32.09375 12.394531 25.242188 0 45.890625-19.585938 47.617188-44.386719zm0 0" fill="#b5efff"/><path d="m198.90625 402.351562c-9.121094 0-17.433594 3.464844-23.695312 9.152344-6.257813-5.6875-14.570313-9.152344-23.691407-9.152344-9.125 0-17.4375 3.464844-23.695312 9.152344-6.257813-5.6875-14.570313-9.152344-23.695313-9.152344-9.121094 0-17.433594 3.464844-23.691406 9.152344-6.261719-5.6875-14.574219-9.152344-23.695312-9.152344-3.410157 0-6.703126.484376-9.820313 1.386719 7.894531 11.152344 16.65625 21.648438 26.191406 31.382813h160.945313c-1.273438-18.308594-16.519532-32.769532-35.152344-32.769532zm0 0" fill="#cff9ff"/><path d="m489.691406 360.632812c-.984375-.082031-1.980468-.132812-2.988281-.132812-9.121094 0-17.433594 3.464844-23.695313 9.152344-6.257812-5.6875-14.570312-9.152344-23.691406-9.152344-9.125 0-17.4375 3.464844-23.695312 9.152344-6.257813-5.6875-14.570313-9.152344-23.695313-9.152344-9.121093 0-17.433593 3.464844-23.691406 9.152344-6.261719-5.6875-14.574219-9.152344-23.695313-9.152344-9.121093 0-17.433593 3.464844-23.695312 9.152344-6.257812-5.6875-14.570312-9.152344-23.691406-9.152344-18.632813 0-33.878906 14.460938-35.152344 32.769531h210.101562c6.617188-10.394531 12.507813-21.292969 17.589844-32.636719zm0 0" fill="#b5efff"/></svg>