<svg height="512pt" viewBox="0 0 512 512" width="512pt" xmlns="http://www.w3.org/2000/svg"><path d="m256 0c-141.386719 0-256 114.613281-256 256 0 141.265625 114.421875 255.800781 255.644531 255.996094v-495.617188 495.617188c.117188 0 .234375.003906.355469.003906 141.386719 0 256-114.613281 256-256s-114.613281-256-256-256zm0 0" fill="#ff6155"/><path d="m317.105469 96.230469-61.460938 63.160156v130.472656l163.457031 163.457031c48.75-40.339843 82.300782-98.398437 90.785157-164.308593zm0 0" fill="#f92814"/><path d="m191.292969 225.515625 64.351562 64.351563v-130.476563zm0 0" fill="#ed2415"/><path d="m5.179688 307.472656c23.800781 116.601563 126.867187 204.355469 250.464843 204.523438v-204.523438zm0 0" fill="#fdba12"/><path d="m255.644531 307.472656v204.523438c.117188 0 .238281.003906.355469.003906 123.753906 0 226.996094-87.8125 250.820312-204.527344zm0 0" fill="#fdba12"/><path d="m255.644531 307.472656v204.523438c.117188 0 .238281.003906.355469.003906 123.753906 0 226.996094-87.8125 250.820312-204.527344zm0 0" fill="#ffa300"/><path d="m256 72.386719c-.117188 0-.238281.003906-.355469.003906v180.46875c.117188 0 .234375.003906.355469.003906 49.839844 0 90.238281-40.398437 90.238281-90.238281 0-49.835938-40.398437-90.238281-90.238281-90.238281zm0 0" fill="#ffe85f"/><path d="m165.761719 162.628906c0 49.714844 40.207031 90.039063 89.882812 90.234375v-180.472656c-49.675781.195313-89.882812 40.515625-89.882812 90.238281zm0 0" fill="#ffe85f"/><path d="m256 72.386719c-.117188 0-.238281.003906-.355469.003906v180.46875c.117188 0 .234375.003906.355469.003906 49.839844 0 90.238281-40.398437 90.238281-90.238281 0-49.835938-40.398437-90.238281-90.238281-90.238281zm0 0" fill="#ffdf57"/><g fill="#ffe85f"><path d="m207.238281 486.441406 2.960938 21.46875c8.097656 1.460938 16.328125 2.535156 24.671875 3.214844l-1.597656-11.566406 22.371093-12.226563v-27.351562zm0 0"/><path d="m231.484375 317.84375 18.609375-10.359375-.007812-.011719h-49.320313l-54.195313 30.164063-22.09375-30.164063h-29.746093l50.15625 68.480469-61.144531 50.46875 12.382812 29.515625c11.320312 9.0625 23.425781 17.1875 36.203125 24.25l-19.554687-46.609375 64.855468-53.53125-16.769531-22.898437 48.78125-27.148438 46.003906 45.410156v-33.722656zm0 0"/><path d="m389.105469 400.207031-11.746094-15.601562 55.953125-56.988281-8.078125-20.144532h-25.859375l5.824219 14.519532-42.4375 43.222656-19.765625-26.253906-71.175782 18.695312-16.179687-15.96875v33.722656l9.050781 8.933594 15.125-3.976562 3.09375 64.703124-27.269531 14.910157v27.351562l51.957031-28.40625-4.050781-84.789062 29.964844-7.871094 39.898437 53 54.457032 26.453125c6.273437-5.691406 12.269531-11.679688 17.957031-17.960938zm0 0"/></g><path d="m389.105469 400.207031-11.746094-15.601562 55.953125-56.988281-8.078125-20.144532h-25.859375l5.824219 14.519532-42.4375 43.222656-19.765625-26.253906-71.175782 18.695312-16.179687-15.96875v33.722656l9.050781 8.933594 15.125-3.976562 3.09375 64.703124-27.269531 14.910157v27.351562l51.957031-28.40625-4.050781-84.789062 29.964844-7.871094 39.898437 53 54.457032 26.453125c6.273437-5.691406 12.269531-11.679688 17.957031-17.960938zm0 0" fill="#ffdf57"/></svg>