<svg height="512pt" viewBox="0 0 512 512" width="512pt" xmlns="http://www.w3.org/2000/svg"><path d="m512 256c0 141.386719-114.613281 256-256 256s-256-114.613281-256-256 114.613281-256 256-256 256 114.613281 256 256zm0 0" fill="#414952"/><path d="m512 256c0-9.871094-.578125-19.605469-1.664062-29.183594l-84.773438-84.769531-344.375 125.757813 58.582031 58.582031-13.902343 13.347656 77.558593 77.5625-12.292969 2.8125-46.265624-46.269531-6.722657 58.398437 76.40625 76.402344c13.492188 2.199219 27.335938 3.359375 41.449219 3.359375 141.386719 0 256-114.613281 256-256zm0 0" fill="#333940"/><path d="m344.285156 444.5c-23.074218 0-41.847656-18.773438-41.847656-41.847656v-108.726563h19v108.726563c0 12.597656 10.25 22.847656 22.847656 22.847656s22.847656-10.25 22.847656-22.847656v-28.8125h19v28.8125c0 23.074218-18.773437 41.847656-41.847656 41.847656zm0 0" fill="#4ab8f7"/><path d="m411.570312 275h-314.140624c-12.109376 0-21.929688-9.816406-21.929688-21.929688v-94.140624c0-12.109376 9.816406-21.929688 21.929688-21.929688h314.140624c12.109376 0 21.929688 9.816406 21.929688 21.929688v94.140624c0 12.113282-9.816406 21.929688-21.929688 21.929688zm0 0" fill="#fff"/><path d="m411.570312 137h-155.925781v138h155.925781c12.113282 0 21.929688-9.816406 21.929688-21.929688v-94.140624c0-12.113282-9.816406-21.929688-21.929688-21.929688zm0 0" fill="#e9edf5"/><path d="m99 232h314v24h-314zm0 0" fill="#19cffc"/><path d="m255.644531 232h157.355469v24h-157.355469zm0 0" fill="#4ab8f7"/><path d="m118 244h276v12h-276zm0 0" fill="#4a7aff"/><path d="m255.644531 244h138.355469v12h-138.355469zm0 0" fill="#2864f0"/><path d="m408 179c0 7.730469-6.269531 14-14 14s-14-6.269531-14-14 6.269531-14 14-14 14 6.269531 14 14zm0 0" fill="#fdba12"/><path d="m245 293.925781h19v78.074219h-19zm0 0" fill="#19cffc"/><path d="m255.644531 293.925781h8.355469v78.074219h-8.355469zm0 0" fill="#4ab8f7"/><path d="m246.5 403.761719h19v47.238281h-19zm0 0" fill="#19cffc"/><path d="m255.644531 403.761719h9.855469v47.238281h-9.855469zm0 0" fill="#4ab8f7"/><path d="m367.132812 293.925781h19v45.808594h-19zm0 0" fill="#4ab8f7"/><g fill="#19cffc"><path d="m167.714844 444.5c-23.074219 0-41.847656-18.773438-41.847656-41.847656v-28.8125h19v28.8125c0 12.597656 10.25 22.847656 22.847656 22.847656s22.847656-10.25 22.847656-22.847656v-108.726563h19v108.726563c0 23.074218-18.773438 41.847656-41.847656 41.847656zm0 0"/><path d="m125.867188 293.925781h19v45.808594h-19zm0 0"/></g></svg>