<svg height="512pt" viewBox="0 0 512 512" width="512pt" xmlns="http://www.w3.org/2000/svg"><path d="m255.601562 0c-141.203124.199219-255.601562 114.699219-255.601562 256 0 141.398438 114.601562 256 256 256s256-114.601562 256-256-114.601562-256-256-256c-.101562 0-.199219 0-.398438 0" fill="#414952"/><path d="m138.800781 483.699219c35.097657 18.101562 75 28.300781 117.199219 28.300781 141.398438 0 256-114.601562 256-256 0-5-.199219-9.898438-.398438-14.800781l-95-95-33.101562 14.402343-71.898438-71.902343-135 196.199219-107 6.300781 31.296876 31.300781-62.5 10.699219 76 76-42.199219 8zm0 0" fill="#333940"/><path d="m94.101562 454.300781c44.097657 36.097657 100.5 57.699219 161.898438 57.699219 19.101562 0 37.699219-2.101562 55.601562-6.101562v-417.097657h-217.5zm0 0" fill="#4a7aff"/><path d="m202.5 88.800781v417.597657c17.300781 3.703124 35.199219 5.601562 53.5 5.601562 19.101562 0 37.699219-2.101562 55.601562-6.101562v-417.097657zm0 0" fill="#2864f0"/><path d="m111.300781 110.898438h84.597657v53.703124h-84.597657zm0 0" fill="#65b1fc"/><path d="m209.699219 110.898438h84.601562v53.703124h-84.601562zm0 0" fill="#4a98f7"/><path d="m111.300781 182h84.597657v53.699219h-84.597657zm0 0" fill="#65b1fc"/><path d="m209.699219 182h84.601562v53.699219h-84.601562zm0 0" fill="#4a98f7"/><path d="m111.300781 253.101562h84.597657v53.699219h-84.597657zm0 0" fill="#65b1fc"/><path d="m209.699219 253.101562h84.601562v53.699219h-84.601562zm0 0" fill="#4a98f7"/><path d="m111.300781 324.199219h84.597657v53.699219h-84.597657zm0 0" fill="#65b1fc"/><path d="m209.699219 324.199219h84.601562v53.699219h-84.601562zm0 0" fill="#4a98f7"/><path d="m111.300781 391.699219h84.597657v53.699219h-84.597657zm0 0" fill="#65b1fc"/><path d="m209.699219 391.699219h84.601562v53.699219h-84.601562zm0 0" fill="#4a98f7"/><path d="m179.601562 146.199219h237v19h-237zm0 0" fill="#fff"/><path d="m196 188.199219h246.398438v19h-246.398438zm0 0" fill="#fff"/><path d="m94.101562 230.199219h357.898438v19h-357.898438zm0 0" fill="#fff"/><g fill="#e9edf5"><path d="m69.699219 272.199219h376.199219v19h-376.199219zm0 0"/><path d="m38.5 314.199219h386.5v19h-386.5zm0 0"/><path d="m115.699219 356.199219h286v19h-286zm0 0"/><path d="m72.300781 398.199219h301.300781v19h-301.300781zm0 0"/></g></svg>