<svg height="512pt" viewBox="0 0 512 512" width="512pt" xmlns="http://www.w3.org/2000/svg"><path d="m512 256c0 141.386719-114.613281 256-256 256s-256-114.613281-256-256 114.613281-256 256-256 256 114.613281 256 256zm0 0" fill="#ff6155"/><path d="m511.957031 259.375-124.707031-124.707031-38.605469 24.136719-88.613281-88.613282-28.441406 54.507813 24.53125 24.53125-41.769532 55.199219-51.328124-51.328126-20.109376 20.109376 54.113282 54.113281-41.769532 55.199219-40.746093-40.742188-54.511719 28.4375 95.316406 95.316406-30.839844 31.90625 113.945313 113.945313c5.8125.394531 11.667969.613281 17.578125.613281 140.257812 0 254.148438-112.796875 255.957031-252.625zm0 0" fill="#f92814"/><path d="m360.394531 256c0 63.285156-51.300781 114.585938-114.585937 114.585938s-114.585938-51.300782-114.585938-114.585938 51.300782-114.585938 114.585938-114.585938 114.585937 51.300782 114.585937 114.585938zm0 0" fill="#fdba12"/><path d="m131.226562 255.539062c0 .152344-.003906.308594-.003906.460938 0 63.285156 51.300782 114.585938 114.585938 114.585938s114.585937-51.300782 114.585937-114.585938c0-.152344-.003906-.308594-.003906-.460938zm0 0" fill="#ffa300"/><path d="m318.679688 259.601562c0 42.234376-34.238282 76.472657-76.472657 76.472657s-76.472656-34.238281-76.472656-76.472657c0-42.234374 34.238281-76.472656 76.472656-76.472656s76.472657 34.238282 76.472657 76.472656zm0 0" fill="#fcda15"/><path d="m165.84375 255.539062c-.070312 1.347657-.109375 2.699219-.109375 4.0625 0 42.234376 34.238281 76.472657 76.472656 76.472657s76.472657-34.238281 76.472657-76.472657c0-1.363281-.039063-2.714843-.109376-4.0625zm0 0" fill="#ffd400"/><path d="m231.589844 70.191406h28.4375v54.507813h-28.4375zm0 0" fill="#fdba12"/><path d="m231.589844 387.300781h28.4375v54.507813h-28.4375zm0 0" fill="#ffa300"/><path d="m431.617188 241.78125v28.4375h-54.507813v-28.4375zm0 0" fill="#fdba12"/><path d="m114.511719 241.78125v28.4375h-54.511719v-28.4375zm0 0" fill="#fdba12"/><path d="m60 255.539062h54.511719v14.679688h-54.511719zm0 0" fill="#ffa300"/><path d="m367.140625 114.554688 20.109375 20.109374-38.546875 38.542969-20.109375-20.109375zm0 0" fill="#fdba12"/><path d="m142.914062 338.785156 20.109376 20.109375-38.542969 38.542969-20.109375-20.109375zm0 0" fill="#ffa300"/><path d="m104.363281 134.667969 20.113281-20.109375 38.542969 38.542968-20.109375 20.109376zm0 0" fill="#fdba12"/><path d="m328.589844 358.898438 20.109375-20.109376 38.546875 38.542969-20.109375 20.109375zm0 0" fill="#ffa300"/><path d="m452 256c0 62.175781-50.402344 112.574219-112.574219 112.574219-62.175781 0-112.578125-50.398438-112.578125-112.574219s50.402344-112.574219 112.578125-112.574219c62.171875 0 112.574219 50.398438 112.574219 112.574219zm0 0" fill="#414952"/><path d="m226.855469 255.539062c0 .152344-.007813.308594-.007813.460938 0 62.175781 50.402344 112.574219 112.578125 112.574219 62.171875 0 112.574219-50.398438 112.574219-112.574219 0-.152344-.003906-.308594-.007812-.460938zm0 0" fill="#333940"/><path d="m415.679688 205.410156c0 16.828125-13.640626 30.464844-30.464844 30.464844-16.828125 0-30.46875-13.636719-30.46875-30.464844 0-16.824218 13.640625-30.464844 30.46875-30.464844 16.824218 0 30.464844 13.640626 30.464844 30.464844zm0 0" fill="#9196aa"/><path d="m432.789062 272.691406c0 7.230469-5.859374 13.089844-13.089843 13.089844s-13.089844-5.859375-13.089844-13.089844c0-7.230468 5.859375-13.089844 13.089844-13.089844s13.089843 5.859376 13.089843 13.089844zm0 0" fill="#7e8596"/><path d="m335.792969 199.84375c0 7.941406-6.4375 14.382812-14.382813 14.382812-7.941406 0-14.378906-6.441406-14.378906-14.382812 0-7.945312 6.4375-14.382812 14.378906-14.382812 7.945313 0 14.382813 6.4375 14.382813 14.382812zm0 0" fill="#9196aa"/><path d="m391.832031 306.542969c0 18.441406-14.949219 33.394531-33.394531 33.394531-18.441406 0-33.394531-14.953125-33.394531-33.394531 0-18.445313 14.953125-33.394531 33.394531-33.394531 18.445312 0 33.394531 14.949218 33.394531 33.394531zm0 0" fill="#7e8596"/></svg>