<svg height="512pt" viewBox="0 0 512 512" width="512pt" xmlns="http://www.w3.org/2000/svg"><path d="m512 256c0 141.386719-114.613281 256-256 256s-256-114.613281-256-256 114.613281-256 256-256 256 114.613281 256 256zm0 0" fill="#4a7aff"/><path d="m366.496094 486.984375c86.066406-41.246094 145.503906-129.171875 145.503906-230.984375 0-8.28125-.40625-16.472656-1.179688-24.554688l-108.742187-108.742187h-102.558594l47.84375 47.84375-18.207031 14.535156-83.375-83.378906-88.136719 21 61.234375 61.238281-148.355468 7.070313zm0 0" fill="#2864f0"/><path d="m352.261719 241.136719h-199.03125v-21h199.03125c26.859375 0 48.714843-21.855469 48.714843-48.71875 0-26.859375-21.855468-48.714844-48.714843-48.714844h-52.742188v-21h52.742188c38.441406 0 69.714843 31.273437 69.714843 69.714844 0 38.441406-31.273437 69.71875-69.714843 69.71875zm0 0" fill="#fff"/><path d="m352.261719 101.703125h-52.742188v21h52.742188c26.859375 0 48.714843 21.855469 48.714843 48.714844 0 26.863281-21.855468 48.71875-48.714843 48.71875h-96.617188v21h96.617188c38.441406 0 69.714843-31.277344 69.714843-69.71875 0-38.441407-31.273437-69.714844-69.714843-69.714844zm0 0" fill="#e9edf5"/><path d="m70.523438 170.011719h277.511718v21h-277.511718zm0 0" fill="#fff"/><path d="m255.644531 170.011719h92.390625v21h-92.390625zm0 0" fill="#e9edf5"/><path d="m157.644531 101.703125h88.136719v21h-88.136719zm0 0" fill="#fff"/><path d="m256 512c119.914062 0 220.554688-82.453125 248.363281-193.753906-4.246093 1.410156-9.058593 2.25-14.703125 2.25-39.089844 0-39.089844-39.359375-78.179687-39.359375-39.089844 0-39.089844 39.359375-78.175781 39.359375-39.089844 0-39.089844-39.359375-78.175782-39.359375-39.085937 0-39.085937 39.359375-78.171875 39.359375-39.089843 0-39.089843-39.359375-78.175781-39.359375s-39.085938 39.359375-78.175781 39.359375c-4.824219 0-9.042969-.613282-12.824219-1.667969 28.007812 111.007813 128.515625 193.171875 248.21875 193.171875zm0 0" fill="#80dbff"/><path d="m504.363281 318.246094c-4.246093 1.410156-9.058593 2.25-14.703125 2.25-39.089844 0-39.089844-39.359375-78.179687-39.359375-39.089844 0-39.089844 39.359375-78.175781 39.359375-38.679688 0-39.089844-38.535156-76.96875-39.339844v230.839844c119.765624-.152344 220.246093-82.550782 248.027343-193.75zm0 0" fill="#4ab8f7"/><path d="m256 512c87.890625 0 165.425781-44.296875 211.523438-111.777344-19.109376-10.839844-26.171876-33.804687-56.042969-33.804687-39.089844 0-39.089844 39.359375-78.175781 39.359375-39.089844 0-39.089844-39.359375-78.175782-39.359375-39.085937 0-39.085937 39.359375-78.171875 39.359375-39.089843 0-39.089843-39.359375-78.175781-39.359375-29.21875 0-36.597656 21.996093-54.792969 33.101562 46.039063 67.875 123.816407 112.480469 212.011719 112.480469zm0 0" fill="#96e8ff"/><path d="m467.523438 400.222656c-19.109376-10.839844-26.171876-33.804687-56.042969-33.804687-39.089844 0-39.089844 39.359375-78.175781 39.359375-38.679688 0-39.089844-38.535156-76.96875-39.339844v145.558594c87.75-.109375 165.148437-44.378906 211.1875-111.773438zm0 0" fill="#80dbff"/></svg>