<svg height="512pt" viewBox="0 0 512 512" width="512pt" xmlns="http://www.w3.org/2000/svg"><path d="m512 256c0 141.386719-114.613281 256-256 256s-256-114.613281-256-256 114.613281-256 256-256 256 114.613281 256 256zm0 0" fill="#fdba12"/><path d="m511.964844 258.65625-65.644532-65.644531-10.46875 6.523437-84.132812-84.132812-270.589844 131.796875 57.972656 57.976562-43.972656 9.527344 41.25 41.25-59.613281 8.28125 33.015625 33.015625-33.015625 8.75 90.007813 90.007812c27.785156 10.335938 57.84375 15.992188 89.226562 15.992188 140.496094 0 254.539062-113.183594 255.964844-253.34375zm0 0" fill="#ffa300"/><path d="m384.351562 325.714844c44.640626 0 80.824219-36.183594 80.824219-80.824219 0-44.636719-36.183593-80.824219-80.824219-80.824219-2.179687 0-4.339843.089844-6.480468.261719-8.414063-43.488281-46.683594-76.328125-92.628906-76.328125-35.78125 0-66.90625 19.917969-82.902344 49.269531-2.332032-.171875-4.6875-.261719-7.0625-.261719-52.113282 0-94.355469 42.242188-94.355469 94.351563 0 52.113281 42.242187 94.355469 94.355469 94.355469zm0 0" fill="#4a7aff"/><path d="m384.351562 164.070312c-2.179687 0-4.339843.085938-6.480468.257813-8.414063-43.488281-46.683594-76.328125-92.628906-76.328125-10.082032 0-19.792969 1.582031-28.898438 4.507812v233.207032h128.007812c44.640626 0 80.824219-36.183594 80.824219-80.824219 0-44.636719-36.1875-80.820313-80.824219-80.820313zm0 0" fill="#2864f0"/><path d="m273.449219 364.234375h-196.683594v-21h196.683594c26.480469 0 48.019531-21.539063 48.019531-48.015625 0-26.480469-21.539062-48.019531-48.019531-48.019531h-52.117188v-21h52.117188c38.058593 0 69.019531 30.960937 69.019531 69.019531 0 38.054688-30.960938 69.015625-69.019531 69.015625zm0 0" fill="#fff"/><path d="m273.449219 226.199219h-17.105469v21h17.105469c26.480469 0 48.019531 21.542969 48.019531 48.019531s-21.539062 48.015625-48.019531 48.015625h-17.105469v21h17.105469c38.058593 0 69.019531-30.960937 69.019531-69.015625 0-38.058594-30.960938-69.019531-69.019531-69.019531zm0 0" fill="#e9edf5"/><path d="m76.765625 385h56.054687v21h-56.054687zm0 0" fill="#fff"/><path d="m168.226562 385h202.097657v21h-202.097657zm0 0" fill="#fff"/><path d="m256.34375 385h113.980469v21h-113.980469zm0 0" fill="#e9edf5"/><path d="m95.128906 293.703125h174.144532v21h-174.144532zm0 0" fill="#fff"/><path d="m256.34375 293.703125h12.929688v21h-12.929688zm0 0" fill="#e9edf5"/><path d="m81.128906 226.199219h87.097656v21h-87.097656zm0 0" fill="#fff"/></svg>