<svg height="512pt" viewBox="0 0 512 512" width="512pt" xmlns="http://www.w3.org/2000/svg"><path d="m512 256c0 141.386719-114.613281 256-256 256s-256-114.613281-256-256 114.613281-256 256-256 256 114.613281 256 256zm0 0" fill="#414952"/><path d="m128.816406 416.871094-25.960937 7.074218 76.316406 76.316407c13.695313 4.304687 27.890625 7.480469 42.46875 9.4375zm0 0" fill="#333940"/><path d="m511.945312 260.238281-91.96875-91.96875-9.265624 8.511719-82.53125-82.53125-229.628907 184.78125 32.757813 32.753906-23.144532 29.097656 33.929688 33.929688-16.921875 14.476562 53.109375 53.109376-7.472656 6.507812 62.042968 62.039062c7.625.6875 15.34375 1.054688 23.148438 1.054688 139.96875 0 253.679688-112.332031 255.945312-251.761719zm0 0" fill="#333940"/><path d="m318.957031 218.792969 10.828125-16.816407 15.132813 9.742188-10.824219 16.816406zm0 0" fill="#fff"/><path d="m208.253906 423.992188-15.132812-9.742188 19.972656-31.027344 15.136719 9.742188zm31.460938-48.867188-15.132813-9.742188 19.976563-31.027343 15.132812 9.742187zm31.460937-48.867188-15.132812-9.742187 19.976562-31.027344 15.132813 9.742188zm31.460938-48.867187-15.132813-9.742187 19.976563-31.027344 15.132812 9.742187zm0 0" fill="#fff"/><path d="m193.109375 414.257812 19.972656-31.027343 15.136719 9.742187-19.976562 31.027344zm0 0" fill="#fff"/><path d="m256.03125 316.503906 19.972656-31.023437 15.136719 9.742187-19.976563 31.027344zm0 0" fill="#e9edf5"/><path d="m287.492188 267.644531 19.972656-31.027343 15.136718 9.742187-19.976562 31.027344zm0 0" fill="#fff"/><path d="m255.644531 341.492188v8.894531l4.046875-6.289063zm0 0" fill="#e9edf5"/><g fill="#fff"><path d="m170.792969 448.914062 10.828125-16.816406 15.132812 9.742188-10.824218 16.816406zm0 0"/><path d="m251 193.816406 10.828125-16.816406 15.132813 9.746094-10.824219 16.8125zm0 0"/><path d="m140.304688 399.03125-15.136719-9.742188 19.976562-31.027343 15.132813 9.746093zm31.460937-48.867188-15.136719-9.742187 19.976563-31.027344 15.132812 9.746094zm31.460937-48.867187-15.136718-9.742187 19.976562-31.027344 15.132813 9.746094zm31.460938-48.863281-15.136719-9.746094 19.976563-31.027344 15.132812 9.746094zm0 0"/><path d="m102.847656 423.933594 10.828125-16.816406 15.132813 9.742187-10.824219 16.816406zm0 0"/><path d="m396.167969 229.375 10.828125-16.816406 15.132812 9.742187-10.824218 16.816407zm0 0"/></g><path d="m285.464844 434.570312-15.136719-9.742187 19.976563-31.027344 15.136718 9.742188zm31.460937-48.867187-15.136719-9.742187 19.976563-31.027344 15.136719 9.746094zm31.460938-48.867187-15.132813-9.742188 19.972656-31.027344 15.136719 9.742188zm31.460937-48.867188-15.132812-9.742188 19.972656-31.027343 15.136719 9.742187zm0 0" fill="#e9edf5"/><path d="m248.003906 459.496094 10.828125-16.816406 15.132813 9.742187-10.824219 16.816406zm0 0" fill="#fff"/><path d="m273.980469 452.410156-15.136719-9.742187-3.199219 4.972656v16.753906l7.507813 4.832031zm0 0" fill="#e9edf5"/><path d="m359.457031 306.9375c45.589844 0 82.542969-36.957031 82.542969-82.542969 0-45.585937-36.953125-82.542969-82.542969-82.542969-2.226562 0-4.433593.089844-6.617187.265626-8.59375-44.414063-47.675782-77.953126-94.597656-77.953126-36.542969 0-68.332032 20.34375-84.667969 50.316407-2.382813-.175781-4.789063-.265625-7.214844-.265625-53.21875 0-96.359375 43.140625-96.359375 96.359375s43.140625 96.363281 96.359375 96.363281zm0 0" fill="#4a7aff"/><path d="m359.457031 141.851562c-2.226562 0-4.433593.089844-6.617187.265626-8.59375-44.414063-47.675782-77.953126-94.597656-77.953126-.871094 0-1.734376.023438-2.597657.046876v242.726562h103.8125c45.585938 0 82.542969-36.957031 82.542969-82.542969 0-45.585937-36.953125-82.542969-82.542969-82.542969zm0 0" fill="#2864f0"/><path d="m230.503906 278.007812 41.164063-145.492187-92.609375 92.609375-29.734375-29.734375-41.160157 145.496094 92.605469-92.609375zm0 0" fill="#fdba12"/><path d="m193.332031 210.847656v44.867188l7.4375-7.4375 29.734375 29.730468 41.164063-145.492187zm0 0" fill="#ffa300"/><path d="m248.003906 459.496094 10.828125-16.816406 15.132813 9.742187-10.824219 16.816406zm0 0" fill="#fff"/></svg>