<svg height="512pt" viewBox="0 0 512 512" width="512pt" xmlns="http://www.w3.org/2000/svg"><path d="m512 256c0 141.386719-114.613281 256-256 256s-256-114.613281-256-256 114.613281-256 256-256 256 114.613281 256 256zm0 0" fill="#4a7aff"/><path d="m511.027344 278.222656-178.351563-178.355468-46.300781 46.632812 54.625 54.625v23.773438h-29.535156l-117.347656-117.34375-6.191407 13.285156-20.96875-20.972656-1.007812 33.824218-26.144531-26.144531-8.175782 25.789063-26.257812 8.640624 23.765625 23.765626-31.453125 3.398437 19.480468 19.476563-11.800781 7.671874 201.507813 201.507813-2.667969 2.664063-82.804687-82.804688-4.964844 14.507812-22.195313-22.195312-1.90625 1.601562-60.703125-60.707031-41.492187 52.261719 45.484375 45.484375-2.964844 3.464844 22.835938 22.839843-30.523438 4.324219 22.335938 22.335938-14.660157 4.8125 104.945313 104.945312c6.082031.4375 12.21875.667969 18.410156.667969 133.898438 0 243.765625-102.800781 255.027344-233.777344zm0 0" fill="#2864f0"/><path d="m222.71875 169.136719v-13.507813h-46.210938l13.644532-13.640625h24.886718v-13.511719h-20.921874v-20.921874h-13.507813v24.871093l-13.652344 13.652344v-46.210937h-13.511719v46.210937l-13.640624-13.644531v-24.886719h-13.507813v20.921875h-20.921875v13.507812h24.867188l13.652343 13.652344h-46.207031v13.507813h46.207031l-13.640625 13.644531h-24.890625v13.507812h20.921875v20.921876h13.507813v-24.867188l13.652343-13.652344v46.207032h13.511719v-46.207032l13.640625 13.640625v24.890625h13.511719v-20.921875h20.921875v-13.511719h-24.871094l-13.652344-13.652343zm0 0" fill="#fff"/><path d="m454.492188 270.757812v-17.515624h-59.917969l17.6875-17.691407h32.277343v-17.519531h-27.132812v-27.128906h-17.515625v32.25l-17.703125 17.703125v-59.921875h-17.519531v59.921875l-17.691407-17.691407v-32.273437h-17.515624v27.128906h-27.128907v17.515625h32.246094l17.703125 17.707032h-59.921875v17.515624h59.921875l-17.6875 17.691407h-32.277344v17.519531h27.132813v27.128906h17.515625v-32.25l17.703125-17.703125v59.921875h17.519531v-59.921875l17.691406 17.691407v32.273437h17.515625v-27.128906h27.128907v-17.515625h-32.246094l-17.703125-17.707032zm0 0" fill="#e9edf5"/><path d="m250 379.238281v-13.507812h-46.210938l13.644532-13.644531h24.886718v-13.507813h-20.921874v-20.921875h-13.507813v24.867188l-13.652344 13.652343v-46.207031h-13.507812v46.207031l-13.644531-13.640625v-24.890625h-13.507813v20.921875h-20.921875v13.507813h24.867188l13.652343 13.65625h-46.207031v13.507812h46.207031l-13.640625 13.644531h-24.890625v13.507813h20.921875v20.921875h13.507813v-24.871094l13.65625-13.652344v46.210938h13.507812v-46.210938l13.644531 13.644532v24.886718h13.507813v-20.921874h20.921875v-13.507813h-24.871094l-13.652344-13.652344zm0 0" fill="#fff"/><path d="m338.773438 119.085938c0 18.429687-14.941407 33.371093-33.375 33.371093-18.429688 0-33.371094-14.941406-33.371094-33.371093 0-18.433594 14.941406-33.375 33.371094-33.375 18.433593 0 33.375 14.941406 33.375 33.375zm0 0" fill="#e9edf5"/><path d="m143.746094 276.59375c0 18.433594-14.941406 33.375-33.375 33.375-18.429688 0-33.371094-14.941406-33.371094-33.375 0-18.429688 14.941406-33.371094 33.371094-33.371094 18.433594 0 33.375 14.941406 33.375 33.371094zm0 0" fill="#fff"/><path d="m350.734375 387.589844c0 18.429687-14.941406 33.371094-33.371094 33.371094-18.433593 0-33.375-14.941407-33.375-33.371094 0-18.433594 14.941407-33.375 33.375-33.375 18.429688 0 33.371094 14.941406 33.371094 33.375zm0 0" fill="#e9edf5"/><path d="m250 262c0 10.371094-8.40625 18.777344-18.777344 18.777344s-18.78125-8.40625-18.78125-18.777344 8.410156-18.777344 18.78125-18.777344 18.777344 8.40625 18.777344 18.777344zm0 0" fill="#fff"/></svg>