<svg height="512pt" viewBox="0 0 512 512" width="512pt" xmlns="http://www.w3.org/2000/svg"><path d="m512 256c0 141.386719-114.613281 256-256 256s-256-114.613281-256-256 114.613281-256 256-256 256 114.613281 256 256zm0 0" fill="#4a7aff"/><path d="m502.199219 326.382812-266.382813-266.382812.628906 259.554688 154.195313 154.199218c53.507813-33.15625 93.894531-85.46875 111.558594-147.371094zm0 0" fill="#2864f0"/><path d="m9.546875 325.472656c30.277344 107.625 129.148437 186.527344 246.453125 186.527344s216.175781-78.902344 246.453125-186.527344zm0 0" fill="#19cffc"/><path d="m255.644531 325.472656v186.523438c.117188 0 .234375.003906.355469.003906 117.304688 0 216.175781-78.902344 246.453125-186.527344zm0 0" fill="#4ab8f7"/><path d="m197.996094 435.613281c-9.125 0-17.4375 3.46875-23.695313 9.152344-6.257812-5.6875-14.570312-9.152344-23.695312-9.152344-9.121094 0-17.433594 3.46875-23.691407 9.152344-6.261718-5.6875-14.574218-9.152344-23.695312-9.152344-8.246094 0-15.824219 2.839844-21.828125 7.582031 9.855469 9.199219 20.433594 17.625 31.644531 25.1875h120.109375c-1.273437-18.308593-16.515625-32.769531-35.148437-32.769531zm0 0" fill="#cff9ff"/><path d="m476.261719 386.515625c-2.007813-.355469-4.074219-.546875-6.183594-.546875-9.121094 0-17.433594 3.464844-23.695313 9.148438-6.257812-5.683594-14.570312-9.148438-23.691406-9.148438-9.125 0-17.4375 3.464844-23.695312 9.148438-6.257813-5.683594-14.570313-9.148438-23.695313-9.148438-9.121093 0-17.433593 3.464844-23.691406 9.148438-6.261719-5.683594-14.574219-9.148438-23.695313-9.148438-18.632812 0-33.878906 14.460938-35.152343 32.769531h160.84375c8.339843-10.121093 15.925781-20.886719 22.65625-32.222656zm0 0" fill="#b5efff"/><path d="m235.816406 60-118.375 68.152344-49.367187 94.832031-8.074219 143.832031 164.550781 26.453125 198.320313-61.226562-13.203125-99.574219-106.089844-26.871094-15.804687-83.769531zm0 0" fill="#fff"/><path d="m409.667969 232.46875-106.089844-26.867188-15.804687-83.769531-32.128907-38.238281v300.078125l167.226563-51.628906zm0 0" fill="#e9edf5"/><path d="m287.773438 121.828125-60.0625 23.710937 8.105468-85.539062zm0 0" fill="#cff9ff"/><path d="m255.644531 83.59375v50.917969l32.128907-12.679688zm0 0" fill="#b5efff"/><path d="m227.710938 145.539062-159.636719 77.445313-8.074219 143.832031 164.550781 26.453125zm0 0" fill="#cff9ff"/></svg>