<svg height="512pt" viewBox="0 0 512 512" width="512pt" xmlns="http://www.w3.org/2000/svg"><path d="m512 256c0 141.386719-114.613281 256-256 256s-256-114.613281-256-256 114.613281-256 256-256 256 114.613281 256 256zm0 0" fill="#19cffc"/><path d="m510.054688 287.628906-119.519532-119.519531-307.984375 85.589844 30.566407 30.566406-17.105469 9.511719 47.480469 47.480468-22.472657 6.1875-23.207031-23.210937-25.960938 7.074219 180.648438 180.644531c1.164062.019531 2.328125.046875 3.5.046875 130.675781 0 238.472656-97.910156 254.054688-224.371094zm0 0" fill="#4ab8f7"/><path d="m262 120.0625c-34.746094 0-67.367188 9.050781-95.664062 24.90625l16.425781 30.507812c23.40625-13.21875 50.4375-20.769531 79.238281-20.769531 88.378906 0 160.148438 71.054688 161.328125 159.152344h34.644531c-1.183594-107.230469-88.460937-193.796875-195.972656-193.796875zm0 0" fill="#ff6155"/><path d="m262 120.0625c-34.746094 0-67.367188 9.050781-95.664062 24.910156l16.425781 30.507813c23.40625-13.222657 50.4375-20.773438 79.238281-20.773438 34.269531 0 66.035156 10.6875 92.160156 28.90625l15.242188-31.511719c-30.847656-20.25-67.746094-32.039062-107.402344-32.039062zm0 0" fill="#ff6155"/><path d="m369.402344 152.101562-15.242188 31.507813c41.257813 28.769531 68.445313 76.3125 69.167969 130.25h34.644531c-.746094-67.675781-35.792968-127.113281-88.570312-161.757813zm0 0" fill="#ff4545"/><path d="m262 154.703125c-28.800781 0-55.832031 7.550781-79.238281 20.773437l18.421875 34.207032c17.917968-10.269532 38.679687-16.144532 60.816406-16.144532 66.929688 0 121.316406 53.671876 122.492188 120.320313h38.835937c-1.179687-88.097656-72.949219-159.15625-161.328125-159.15625zm0 0" fill="#fdba12"/><path d="m354.160156 183.609375-17.1875 35.542969c28.382813 21.996094 46.839844 56.183594 47.519532 94.707031h38.835937c-.722656-53.9375-27.910156-101.484375-69.167969-130.25zm0 0" fill="#ffa300"/><path d="m262 193.539062c-22.136719 0-42.898438 5.875-60.816406 16.144532l19.894531 36.957031c11.992187-7.089844 25.980469-11.160156 40.921875-11.160156 43.765625 0 79.355469 34.894531 80.527344 78.378906h41.964844c-1.175782-66.648437-55.5625-120.320313-122.492188-120.320313zm0 0" fill="#fff"/><path d="m336.972656 219.152344-18.890625 39.066406c14.601563 14.171875 23.859375 33.824219 24.445313 55.640625h41.964844c-.679688-38.523437-19.136719-72.710937-47.519532-94.707031zm0 0" fill="#e9edf5"/><g fill="#fff"><path d="m215.234375 197.265625 10.828125-16.816406 15.132812 9.742187-10.824218 16.816406zm0 0"/><path d="m157.324219 320.484375-15.132813-9.746094 23.191406-36.019531 15.132813 9.742188zm36.527343-56.734375-15.132812-9.746094 23.1875-36.019531 15.136719 9.742187zm0 0"/><path d="m118.023438 348.257812 10.824218-16.816406 15.132813 9.746094-10.824219 16.816406zm0 0"/><path d="m169.058594 180.304688 10.824218-16.816407 15.136719 9.742188-10.828125 16.816406zm0 0"/><path d="m111.148438 303.523438-15.136719-9.746094 23.191406-36.019532 15.136719 9.742188zm36.523437-56.734376-15.132813-9.746093 23.191407-36.019531 15.132812 9.742187zm0 0"/><path d="m71.84375 331.296875 10.828125-16.816406 15.132813 9.746093-10.824219 16.8125zm0 0"/><path d="m267.703125 204.453125 10.824219-16.8125 15.136718 9.742187-10.828124 16.816407zm0 0"/></g><path d="m209.796875 327.671875-15.136719-9.742187 23.191406-36.023438 15.132813 9.746094zm36.523437-56.734375-15.132812-9.742188 23.191406-36.023437 15.132813 9.742187zm0 0" fill="#e9edf5"/><path d="m170.488281 355.464844 10.828125-16.816406 15.132813 9.746093-10.828125 16.816407zm0 0" fill="#e9edf5"/><path d="m273.117188 272.261719c33.671874 0 60.96875-27.296875 60.96875-60.96875 0-33.675781-27.296876-60.972657-60.96875-60.972657-1.644532 0-3.277344.070313-4.890626.195313-6.347656-32.804687-35.214843-57.578125-69.875-57.578125-26.992187 0-50.472656 15.027344-62.539062 37.167969-1.757812-.132813-3.535156-.199219-5.328125-.199219-39.308594 0-71.175781 31.867188-71.175781 71.175781 0 39.3125 31.867187 71.179688 71.175781 71.179688zm0 0" fill="#4a7aff"/><path d="m273.117188 150.324219c-1.644532 0-3.277344.066406-4.890626.195312-6.347656-32.804687-35.214843-57.582031-69.875-57.582031-.015624 0-.035156.003906-.050781.003906v179.320313h74.816407c33.671874 0 60.96875-27.296875 60.96875-60.96875 0-33.675781-27.296876-60.96875-60.96875-60.96875zm0 0" fill="#2864f0"/></svg>