<svg height="512pt" viewBox="0 0 512 512" width="512pt" xmlns="http://www.w3.org/2000/svg"><path d="m512 256c0 141.386719-114.613281 256-256 256s-256-114.613281-256-256 114.613281-256 256-256 256 114.613281 256 256zm0 0" fill="#4a7aff"/><path d="m297.761719 508.589844c121.515625-19.941406 214.238281-125.429688 214.238281-252.589844 0-49.386719-14-95.5-38.226562-134.609375h-269.40625l32.636718 32.632813-224.527344 22.875 47.390626 47.390624-16.640626 29.769532zm0 0" fill="#2864f0"/><path d="m439.28125 77.300781c-10.269531 1.128907-19.566406 5.503907-26.820312 12.09375-8.480469-7.699219-19.738282-12.394531-32.097657-12.394531-12.355469 0-23.617187 4.695312-32.09375 12.394531-8.480469-7.699219-19.738281-12.394531-32.09375-12.394531-12.359375 0-23.617187 4.695312-32.097656 12.394531-8.476563-7.699219-19.738281-12.394531-32.09375-12.394531-25.242187 0-45.890625 19.589844-47.617187 44.390625h269.40625c-9.878907-15.949219-21.460938-30.730469-34.492188-44.089844zm0 0" fill="#cff9ff"/><path d="m439.28125 77.300781c-10.269531 1.128907-19.566406 5.503907-26.820312 12.09375-8.480469-7.699219-19.738282-12.394531-32.097657-12.394531-12.355469 0-23.617187 4.695312-32.09375 12.394531-8.480469-7.699219-19.738281-12.394531-32.09375-12.394531-12.359375 0-23.617187 4.695312-32.097656 12.394531-7.632813-6.933593-17.523437-11.414062-28.433594-12.242187v44.238281h218.128907c-9.878907-15.949219-21.460938-30.730469-34.492188-44.089844zm0 0" fill="#b5efff"/><path d="m252.765625 176.898438c-1.726563-24.800782-22.378906-44.386719-47.617187-44.386719-12.359376 0-23.617188 4.691406-32.09375 12.394531-8.480469-7.703125-19.742188-12.394531-32.097657-12.394531s-23.617187 4.691406-32.09375 12.394531c-8.476562-7.703125-19.738281-12.394531-32.09375-12.394531-12.359375 0-23.617187 4.691406-32.097656 12.394531-4.269531-3.878906-9.25-6.996094-14.722656-9.132812-6.964844 13.074218-12.832031 26.824218-17.472657 41.125zm0 0" fill="#cff9ff"/><path d="m365.691406 272.128906h-21v-92.097656c0-9.320312-7.582031-16.902344-16.898437-16.902344-9.320313 0-16.902344 7.582032-16.902344 16.902344v24.40625h-21v-24.40625c0-20.898438 17.003906-37.902344 37.902344-37.902344 20.898437 0 37.898437 17.003906 37.898437 37.902344zm0 0" fill="#e9edf5"/><path d="m256 512c119.914062 0 220.554688-82.453125 248.363281-193.753906-4.246093 1.410156-9.058593 2.25-14.703125 2.25-39.089844 0-39.089844-39.359375-78.179687-39.359375-39.089844 0-39.089844 39.359375-78.175781 39.359375-39.089844 0-39.089844-39.359375-78.175782-39.359375-39.085937 0-39.085937 39.359375-78.171875 39.359375-39.089843 0-39.089843-39.359375-78.175781-39.359375s-39.085938 39.359375-78.175781 39.359375c-4.824219 0-9.042969-.613282-12.824219-1.667969 28.007812 111.007813 128.515625 193.171875 248.21875 193.171875zm0 0" fill="#80dbff"/><path d="m504.363281 318.246094c-4.246093 1.410156-9.058593 2.25-14.703125 2.25-39.089844 0-39.089844-39.359375-78.179687-39.359375-39.089844 0-39.089844 39.359375-78.175781 39.359375-38.679688 0-39.089844-38.535156-76.96875-39.339844v230.839844c119.765624-.152344 220.246093-82.550782 248.027343-193.75zm0 0" fill="#4ab8f7"/><path d="m256 512c87.890625 0 165.425781-44.296875 211.523438-111.777344-19.109376-10.839844-26.171876-33.804687-56.042969-33.804687-39.089844 0-39.089844 39.359375-78.175781 39.359375-39.089844 0-39.089844-39.359375-78.175782-39.359375-39.085937 0-39.085937 39.359375-78.171875 39.359375-39.089843 0-39.089843-39.359375-78.175781-39.359375-29.21875 0-36.597656 21.996093-54.792969 33.101562 46.039063 67.875 123.816407 112.480469 212.011719 112.480469zm0 0" fill="#96e8ff"/><path d="m467.523438 400.222656c-19.109376-10.839844-26.171876-33.804687-56.042969-33.804687-39.089844 0-39.089844 39.359375-78.175781 39.359375-38.679688 0-39.089844-38.535156-76.96875-39.339844v145.558594c87.75-.109375 165.148437-44.378906 211.1875-111.773438zm0 0" fill="#80dbff"/><path d="m119.027344 321.75h-21v-92.097656c0-9.320313-7.582032-16.902344-16.898438-16.902344-9.320312 0-16.902344 7.582031-16.902344 16.902344v24.40625h-21v-24.40625c0-20.898438 17-37.902344 37.902344-37.902344 20.898438 0 37.898438 17.003906 37.898438 37.902344zm0 0" fill="#fff"/><path d="m187.464844 353.78125h-21v-92.097656c0-20.898438 17.003906-37.902344 37.902344-37.902344 20.898437 0 37.902343 17.003906 37.902343 37.902344v24.40625h-21v-24.40625c0-9.320313-7.582031-16.902344-16.902343-16.902344-9.320313 0-16.902344 7.582031-16.902344 16.902344zm0 0" fill="#fff"/><path d="m392.582031 152.769531h21v81.542969h-21zm0 0" fill="#e9edf5"/><path d="m132.246094 193.019531h21v65.679688h-21zm0 0" fill="#fff"/></svg>