<svg height="512pt" viewBox="0 0 512 512.001" width="512pt" xmlns="http://www.w3.org/2000/svg"><path d="m512 256c0 141.386719-114.613281 256-256 256-141.382812 0-256-114.613281-256-256s114.617188-256 256-256c141.386719 0 256 114.613281 256 256zm0 0" fill="#ff6155"/><path d="m512 256c0-7.09375-.300781-14.113281-.867188-21.058594l-111.261718-111.261718-21.46875 56.761718-59.050782-59.050781-19.484374 59.359375-55.351563-55.351562-14.25 63.648437-67.652344-67.65625-42.679687 271.042969 17.796875 18.253906-12.105469 8.9375 89.035156 89.035156c13.460938 2.1875 27.265625 3.339844 41.339844 3.339844 141.386719 0 256-114.613281 256-256zm0 0" fill="#f92814"/><path d="m125.625 363.625h30v56h-30zm0 0" fill="#cdd2e1"/><path d="m360.347656 363.625h30v56h-30zm0 0" fill="#bec3d2"/><path d="m131.433594 134h256v239h-256zm0 0" fill="#cdd2e1"/><path d="m131.433594 255h256v118h-256zm0 0" fill="#bec3d2"/><path d="m140.25 399.636719c-17.8125 0-32.25-14.4375-32.25-32.246094v-222.777344c0-17.8125 14.4375-32.25 32.25-32.25 17.808594 0 32.246094 14.4375 32.246094 32.25v222.777344c0 17.808594-14.4375 32.246094-32.246094 32.246094zm0 0" fill="#fff"/><path d="m218.617188 399.636719c-17.8125 0-32.25-14.4375-32.25-32.246094v-222.777344c0-17.8125 14.4375-32.25 32.25-32.25 17.808593 0 32.246093 14.4375 32.246093 32.25v222.777344c0 17.808594-14.4375 32.246094-32.246093 32.246094zm0 0" fill="#fff"/><path d="m401.773438 212.023438h6.683593c7.933594 0 14.363281-6.429688 14.363281-14.363282v-39.273437c0-7.933594-6.429687-14.363281-14.363281-14.363281h-6.683593c-7.929688 0-14.359376 6.429687-14.359376 14.363281v39.273437c0 7.933594 6.429688 14.363282 14.359376 14.363282zm0 0" fill="#fdba12"/><path d="m296.984375 399.636719c-17.8125 0-32.25-14.4375-32.25-32.246094v-222.777344c0-17.8125 14.4375-32.25 32.25-32.25 17.808594 0 32.246094 14.4375 32.246094 32.25v222.777344c0 17.808594-14.4375 32.246094-32.246094 32.246094zm0 0" fill="#fff"/><path d="m375.347656 399.636719c-17.808594 0-32.246094-14.4375-32.246094-32.246094v-222.777344c0-17.8125 14.4375-32.25 32.246094-32.25 17.8125 0 32.25 14.4375 32.25 32.25v222.777344c0 17.808594-14.4375 32.246094-32.25 32.246094zm0 0" fill="#fff"/><g fill="#e9edf5"><path d="m108 255v112.390625c0 17.808594 14.4375 32.246094 32.25 32.246094 17.808594 0 32.246094-14.4375 32.246094-32.246094v-112.390625zm0 0"/><path d="m186.367188 255v112.390625c0 17.808594 14.4375 32.246094 32.25 32.246094 17.808593 0 32.246093-14.4375 32.246093-32.246094v-112.390625zm0 0"/><path d="m264.734375 255v112.390625c0 17.808594 14.4375 32.246094 32.246094 32.246094 17.8125 0 32.25-14.4375 32.25-32.246094v-112.390625zm0 0"/><path d="m343.101562 255v112.390625c0 17.808594 14.4375 32.246094 32.246094 32.246094 17.8125 0 32.25-14.4375 32.25-32.246094v-112.390625zm0 0"/></g></svg>