<svg height="512pt" viewBox="0 0 512 512" width="512pt" xmlns="http://www.w3.org/2000/svg"><path d="m512 256c0 141.386719-114.613281 256-256 256s-256-114.613281-256-256 114.613281-256 256-256 256 114.613281 256 256zm0 0" fill="#19cffc"/><path d="m509.4375 292.226562-68.636719-68.636718-7.355469 7.136718-72.496093-72.496093-14.15625 24.992187-83.226563-83.226562-181.710937 156.003906 69.828125 69.828125-3.019532 16.238281 163.695313 163.695313c102.75-23.085938 182.117187-107.945313 197.078125-213.535157zm0 0" fill="#4ab8f7"/><path d="m116.824219 348.515625 10.75 51.410156 111.503906 111.503907c5.597656.367187 11.234375.570312 16.921875.570312 7.839844 0 15.589844-.371094 23.246094-1.0625zm0 0" fill="#4ab8f7"/><path d="m290.578125 275c37.179687 0 67.320313-30.140625 67.320313-67.320312 0-37.179688-30.140626-67.320313-67.320313-67.320313-1.816406 0-3.617187.074219-5.398437.214844-7.007813-36.21875-38.882813-63.574219-77.152344-63.574219-29.800782 0-55.730469 16.589844-69.054688 41.035156-1.941406-.140625-3.902344-.21875-5.878906-.21875-43.40625 0-78.59375 35.1875-78.59375 78.59375 0 43.402344 35.1875 78.589844 78.59375 78.589844zm0 0" fill="#414952"/><path d="m290.578125 140.359375c-1.816406 0-3.617187.074219-5.398437.214844-7.003907-36.199219-38.847657-63.542969-77.089844-63.570313v197.996094h82.488281c37.179687 0 67.320313-30.140625 67.320313-67.320312 0-37.179688-30.140626-67.320313-67.320313-67.320313zm0 0" fill="#333940"/><path d="m390.578125 335.734375c37.179687 0 67.320313-30.136719 67.320313-67.320313 0-37.179687-30.140626-67.316406-67.320313-67.316406-1.816406 0-3.617187.074219-5.398437.214844-7.007813-36.222656-38.882813-63.578125-77.152344-63.578125-29.804688 0-55.730469 16.589844-69.054688 41.039063-1.941406-.144532-3.902344-.21875-5.882812-.21875-43.402344 0-78.589844 35.183593-78.589844 78.589843s35.1875 78.589844 78.589844 78.589844zm0 0" fill="#636978"/><path d="m390.578125 201.097656c-1.816406 0-3.617187.074219-5.398437.214844-7.007813-36.222656-38.882813-63.578125-77.152344-63.578125-.210938 0-.421875.011719-.636719.011719v197.988281h83.1875c37.179687 0 67.320313-30.136719 67.320313-67.320313 0-37.179687-30.140626-67.316406-67.320313-67.316406zm0 0" fill="#555a66"/><path d="m275.6875 354.234375 11.667969-5.730469 22.421875 45.683594-11.671875 5.730469zm0 0" fill="#e9edf5"/><path d="m105.152344 354.242188 11.671875-5.730469 22.421875 45.683593-11.671875 5.726563zm0 0" fill="#fff"/><path d="m190.421875 354.234375 11.671875-5.726563 22.421875 45.683594-11.671875 5.726563zm0 0" fill="#fff"/><path d="m360.945312 354.242188 11.671876-5.730469 22.421874 45.683593-11.671874 5.726563zm0 0" fill="#e9edf5"/><path d="m126.242188 296.382812 11.671874-5.726562 22.421876 45.683594-11.671876 5.726562zm0 0" fill="#fff"/><path d="m331.789062 409.171875 11.671876-5.730469 22.421874 45.683594-11.671874 5.730469zm0 0" fill="#e9edf5"/><path d="m183.679688 454.863281-21.164063-43 11.667969-5.730469 21.164062 43.003907zm0 0" fill="#fff"/><path d="m246.519531 409.179688 11.671875-5.726563 22.421875 45.683594-11.671875 5.726562zm0 0" fill="#fff"/><path d="m280.613281 449.136719-22.421875-45.683594-2.546875 1.25v23.0625l13.296875 27.097656zm0 0" fill="#e9edf5"/></svg>