<svg height="512pt" viewBox="0 0 512 512" width="512pt" xmlns="http://www.w3.org/2000/svg"><path d="m512 256c0 141.386719-114.613281 256-256 256s-256-114.613281-256-256 114.613281-256 256-256 256 114.613281 256 256zm0 0" fill="#414952"/><path d="m308.214844 506.664062c111.507812-23.109374 196.449218-118.746093 203.316406-235.382812l-109.578125-109.578125-88.101563-11.871094-40.765624-40.769531-173.859376 57.085938 41.757813 41.761718-74.65625 17.566406 92.113281 92.113282-4.992187 3.148437 105.0625 105.0625-17.941407 13.214844zm0 0" fill="#333940"/><path d="m189.421875 184.050781c-26.207031 7.429688-53.476563-7.792969-60.90625-34s7.792969-53.480469 34-60.910156 110.570313 19.921875 110.570313 19.921875-57.453126 67.558594-83.664063 74.988281zm0 0" fill="#fdba12"/><path d="m273.085938 109.066406s-57.453126 67.554688-83.664063 74.984375c-26.207031 7.429688-53.476563-7.792969-60.90625-34zm0 0" fill="#ffa300"/><path d="m238.796875 126.582031-4.09375-14.433593-55.207031 15.652343 6.777344-12.136719-13.097657-7.3125-14.085937 25.234376-63.957032 18.132812 4.09375 14.429688 97.425782-27.621094 24.417968 13.632812 7.3125-13.097656-11.320312-6.320312zm0 0" fill="#ff6155"/><path d="m238.796875 126.582031-1.992187-7.023437-139.410157 40.136718 1.832031 6.453126 97.425782-27.621094 24.417968 13.632812 7.3125-13.097656-11.320312-6.320312zm0 0" fill="#ff4545"/><path d="m289.742188 324.6875c22.886718-19.671875 57.382812-17.066406 77.054687 5.816406 19.671875 22.882813 17.066406 57.378906-5.816406 77.050782-22.878907 19.671874-120.410157 31.464843-120.410157 31.464843s26.289063-94.660156 49.171876-114.332031zm0 0" fill="#fdba12"/><path d="m366.796875 330.503906c19.671875 22.882813 17.066406 57.378906-5.816406 77.050782-22.878907 19.671874-120.410157 31.464843-120.410157 31.464843zm0 0" fill="#ffa300"/><path d="m389.265625 301.296875-85.316406 73.34375-31.226563-2.355469-1.128906 14.957032 16.269531 1.230468-20.457031 17.582032 9.78125 11.375 121.859375-104.757813zm0 0" fill="#ff6155"/><path d="m399.046875 312.671875-4.449219-5.175781-122.300781 104.246094 4.890625 5.6875 50.117188-43.085938-1.742188 17.679688 14.957031 1.125 2.429688-32.253907zm0 0" fill="#ff4545"/><path d="m348.066406 275.601562h-199.03125v-21h199.03125c26.863282 0 48.714844-21.855468 48.714844-48.714843 0-26.863281-21.851562-48.714844-48.714844-48.714844h-52.742187v-21h52.742187c38.441406 0 69.714844 31.273437 69.714844 69.714844 0 38.4375-31.273438 69.714843-69.714844 69.714843zm0 0" fill="#fff"/><path d="m66.328125 204.476562h277.511719v21h-277.511719zm0 0" fill="#fff"/><path d="m348.066406 136.167969h-52.742187v21h52.742187c26.863282 0 48.714844 21.855469 48.714844 48.714843 0 26.863282-21.851562 48.71875-48.714844 48.71875h-92.066406v21h92.066406c38.441406 0 69.714844-31.277343 69.714844-69.71875 0-38.441406-31.273438-69.714843-69.714844-69.714843zm0 0" fill="#e9edf5"/><path d="m256 204.476562h87.839844v21h-87.839844zm0 0" fill="#e9edf5"/><path d="m153.449219 299.738281h88.136719v21h-88.136719zm0 0" fill="#fff"/></svg>