<svg height="512pt" viewBox="0 0 512 512" width="512pt" xmlns="http://www.w3.org/2000/svg"><path d="m512 256c0 141.386719-114.613281 256-256 256s-256-114.613281-256-256 114.613281-256 256-256 256 114.613281 256 256zm0 0" fill="#ff6155"/><path d="m457 214.019531-78.347656 10.964844-103.320313-103.316406-25.332031 92.351562-102.242188-14.433593-79.273437 93.707031 206.980469 206.984375c-.5 6.964844-.589844 11-.132813 11 128.171875-9.570313 230.042969-113.515625 236.351563-242.574219zm0 0" fill="#f92814"/><path d="m236.667969 511.277344c6.382812.476562 12.828125.722656 19.332031.722656s12.949219-.246094 19.332031-.722656v-389.613282h-38.667969v389.613282zm0 0" fill="#bfe1ff"/><path d="m255.644531 121.667969v390.328125c.117188 0 .234375.003906.355469.003906 6.503906 0 12.949219-.246094 19.332031-.722656v-389.613282h-19.6875zm0 0" fill="#a3d4ff"/><path d="m377.722656 134.742188-20.507812 20.507812 44.335937 44.335938h-270.90625v28.863281h270.90625l-44.335937 44.335937 20.507812 20.507813 79.277344-79.273438zm0 0" fill="#fff"/><path d="m130.644531 214.019531v14.429688h270.90625l-44.335937 44.335937 20.507812 20.507813 79.277344-79.273438zm0 0" fill="#e9edf5"/><path d="m297.980469 214.019531c0 23.183594-18.792969 41.980469-41.980469 41.980469s-41.980469-18.796875-41.980469-41.980469c0-23.1875 18.792969-41.984375 41.980469-41.984375s41.980469 18.796875 41.980469 41.984375zm0 0" fill="#4a7aff"/><path d="m256 172.035156c-.121094 0-.238281.007813-.355469.011719v83.945313c.117188 0 .234375.007812.355469.007812 23.1875 0 41.980469-18.796875 41.980469-41.980469 0-23.1875-18.792969-41.984375-41.980469-41.984375zm0 0" fill="#2864f0"/><path d="m107.195312 134.742188-20.507812 20.507812 58.765625 58.769531-58.765625 58.765625 20.507812 20.507813 79.277344-79.273438zm0 0" fill="#a3d4ff"/><path d="m145.453125 214.019531-58.765625 58.765625 20.507812 20.507813 79.277344-79.273438zm0 0" fill="#87c7ff"/><path d="m68.484375 134.742188-20.511719 20.507812 58.769532 58.769531-58.769532 58.765625 20.511719 20.507813 79.273437-79.273438zm0 0" fill="#bfe1ff"/><path d="m106.554688 213.832031.1875.1875-58.769532 58.765625 20.511719 20.507813 79.273437-79.273438zm0 0" fill="#a3d4ff"/></svg>