<svg height="512pt" viewBox="0 0 512 512" width="512pt" xmlns="http://www.w3.org/2000/svg"><path d="m512 256c0 141.386719-114.613281 256-256 256s-256-114.613281-256-256 114.613281-256 256-256 256 114.613281 256 256zm0 0" fill="#fdba12"/><path d="m512 256c0-4.480469-.117188-8.929688-.34375-13.355469l-141.496094-141.492187-273.898437 227.757812 17.109375 17.113282-3.425782.242187 47.425782 47.421875-22.421875 6.238281-23.203125-23.203125-25.960938 7.070313 124.046875 124.042969c14.976563 2.730468 30.402344 4.164062 46.167969 4.164062 141.386719 0 256-114.613281 256-256zm0 0" fill="#ffa300"/><g fill="#fff"><path d="m229.167969 249.75 10.828125-16.816406 15.132812 9.742187-10.824218 16.816407zm0 0"/><path d="m171.261719 372.96875-15.136719-9.742188 23.191406-36.023437 15.136719 9.746094zm36.523437-56.734375-15.132812-9.742187 23.191406-36.023438 15.132812 9.746094zm0 0"/><path d="m131.957031 400.742188 10.824219-16.816407 15.136719 9.746094-10.828125 16.816406zm0 0"/><path d="m182.992188 232.789062 10.824218-16.816406 15.136719 9.742188-10.828125 16.816406zm0 0"/><path d="m125.082031 356.007812-15.136719-9.742187 23.191407-36.023437 15.136719 9.746093zm36.527344-56.734374-15.136719-9.742188 23.191406-36.023438 15.136719 9.746094zm0 0"/><path d="m85.78125 383.78125 10.824219-16.816406 15.132812 9.742187-10.824219 16.816407zm0 0"/><path d="m281.636719 256.9375 10.828125-16.816406 15.132812 9.746094-10.824218 16.816406zm0 0"/><path d="m223.730469 380.160156-15.136719-9.746094 23.191406-36.019531 15.136719 9.742188zm36.527343-56.734375-15.136718-9.746093 23.191406-36.019532 15.136719 9.742188zm0 0"/><path d="m184.421875 407.953125 10.828125-16.816406 15.132812 9.746093-10.824218 16.8125zm0 0"/></g><path d="m341.316406 347.308594c44.636719 0 80.824219-36.1875 80.824219-80.824219s-36.1875-80.824219-80.824219-80.824219c-2.183594 0-4.34375.089844-6.484375.257813-8.414062-43.484375-46.679687-76.328125-92.628906-76.328125-35.777344 0-66.90625 19.917968-82.902344 49.269531-2.332031-.171875-4.6875-.261719-7.0625-.261719-52.109375 0-94.355469 42.242188-94.355469 94.355469 0 52.109375 42.246094 94.355469 94.355469 94.355469zm0 0" fill="#4a7aff"/><path d="m341.316406 185.660156c-2.183594 0-4.34375.089844-6.484375.261719-8.414062-43.488281-46.683593-76.328125-92.628906-76.328125-.417969 0-.828125.015625-1.246094.019531v237.695313h100.355469c44.640625 0 80.824219-36.1875 80.824219-80.824219.003906-44.636719-36.183594-80.824219-80.820313-80.824219zm0 0" fill="#2864f0"/><path d="m381.449219 280v-150.757812c0-22.445313-18.195313-40.640626-40.640625-40.640626-22.445313 0-40.636719 18.195313-40.636719 40.640626v150.757812c-22.519531 13.726562-37.550781 38.511719-37.550781 66.8125 0 43.179688 35.007812 78.1875 78.1875 78.1875 43.183594 0 78.1875-35.007812 78.1875-78.1875 0-28.300781-15.03125-53.085938-37.546875-66.8125zm0 0" fill="#fff"/><path d="m381.449219 280v-150.757812c0-22.445313-18.195313-40.640626-40.640625-40.640626-.183594 0-.367188.011719-.550782.015626v336.367187c.183594.003906.367188.015625.550782.015625 43.183594 0 78.1875-35.007812 78.1875-78.1875 0-28.300781-15.03125-53.085938-37.546875-66.8125zm0 0" fill="#e9edf5"/><path d="m360.988281 299.730469v-76.421875c0-11.148438-9.035156-20.183594-20.179687-20.183594-11.148438 0-20.183594 9.035156-20.183594 20.183594v76.421875c-18.25 7.832031-31.035156 25.960937-31.035156 47.082031 0 28.285156 22.933594 51.214844 51.21875 51.214844s51.214844-22.929688 51.214844-51.214844c0-21.121094-12.785157-39.25-31.035157-47.082031zm0 0" fill="#19cffc"/><path d="m360.988281 299.730469v-76.421875c0-11.148438-9.035156-20.183594-20.179687-20.183594-.1875 0-.367188.023438-.550782.027344v194.859375c.183594.003906.363282.015625.550782.015625 28.285156 0 51.214844-22.929688 51.214844-51.21875.003906-21.117188-12.785157-39.246094-31.035157-47.078125zm0 0" fill="#4ab8f7"/></svg>