<svg height="512pt" viewBox="0 0 512 512" width="512pt" xmlns="http://www.w3.org/2000/svg"><path d="m512 256c0 141.386719-114.613281 256-256 256s-256-114.613281-256-256 114.613281-256 256-256 256 114.613281 256 256zm0 0" fill="#414952"/><path d="m512 256c0-7.417969-.335938-14.757812-.953125-22.019531l-120.421875-120.417969-278.792969 275.210938 122.285157 122.285156c7.214843.613281 14.511718.941406 21.882812.941406 141.386719 0 256-114.613281 256-256zm0 0" fill="#333940"/><path d="m452 256c0 108.246094-87.753906 196-196 196s-196-87.753906-196-196 87.753906-196 196-196 196 87.753906 196 196zm0 0" fill="#ff6155"/><path d="m256 60c-.117188 0-.238281.003906-.355469.003906v391.992188c.117188 0 .234375.003906.355469.003906 108.246094 0 196-87.753906 196-196 0-108.25-87.753906-196-196-196zm0 0" fill="#ff4545"/><path d="m413.238281 256c0 86.839844-70.398437 157.238281-157.238281 157.238281s-157.238281-70.398437-157.238281-157.238281 70.398437-157.238281 157.238281-157.238281 157.238281 70.398437 157.238281 157.238281zm0 0" fill="#ed2415"/><path d="m256 98.761719c-.117188 0-.238281.003906-.355469.003906v314.46875c.117188 0 .234375.003906.355469.003906 86.839844 0 157.238281-70.398437 157.238281-157.238281s-70.398437-157.238281-157.238281-157.238281zm0 0" fill="#d61818"/><path d="m182.585938 202.191406c-27.390626 0-49.679688-22.285156-49.679688-49.679687 0-27.390625 22.289062-49.675781 49.679688-49.675781 27.394531 0 49.679687 22.285156 49.679687 49.675781 0 27.394531-22.285156 49.679687-49.679687 49.679687zm0-63.359375c-7.539063 0-13.679688 6.136719-13.679688 13.679688s6.140625 13.679687 13.679688 13.679687c7.542968 0 13.679687-6.136718 13.679687-13.679687s-6.136719-13.679688-13.679687-13.679688zm0 0" fill="#fff"/><path d="m315.9375 413.117188h-39.34375c-35.46875 0-64.324219-28.855469-64.324219-64.328126v-100.839843c0-35.46875 28.855469-64.324219 64.324219-64.324219h39.34375c35.46875 0 64.324219 28.855469 64.324219 64.324219h-39c0-13.960938-11.359375-25.324219-25.324219-25.324219h-39.34375c-13.964844 0-25.324219 11.363281-25.324219 25.324219v100.84375c0 13.964843 11.359375 25.324219 25.324219 25.324219h39.34375c13.964844 0 25.324219-11.359376 25.324219-25.324219h39c0 35.46875-28.855469 64.324219-64.324219 64.324219zm0 0" fill="#fff"/><g fill="#e9edf5"><path d="m276.59375 222.625h39.34375c13.964844 0 25.324219 11.363281 25.324219 25.324219h39c0-35.46875-28.855469-64.324219-64.324219-64.324219h-39.34375c-7.335938 0-14.378906 1.25-20.949219 3.523438v46.589843c4.558594-6.703125 12.25-11.113281 20.949219-11.113281zm0 0"/><path d="m315.9375 374.117188h-39.34375c-8.699219 0-16.390625-4.414063-20.949219-11.113282v46.589844c6.570313 2.273438 13.613281 3.523438 20.949219 3.523438h39.34375c35.46875 0 64.324219-28.855469 64.324219-64.328126h-39c0 13.964844-11.363281 25.328126-25.324219 25.328126zm0 0"/></g></svg>