<svg height="512pt" viewBox="0 0 512 512" width="512pt" xmlns="http://www.w3.org/2000/svg"><path d="m512 256c0 141.386719-114.613281 256-256 256s-256-114.613281-256-256 114.613281-256 256-256 256 114.613281 256 256zm0 0" fill="#414952"/><path d="m512 256c0-7.417969-.335938-14.757812-.953125-22.019531l-120.421875-120.417969-278.792969 275.210938 122.285157 122.285156c7.214843.613281 14.511718.941406 21.882812.941406 141.386719 0 256-114.613281 256-256zm0 0" fill="#333940"/><path d="m452 256c0 108.246094-87.753906 196-196 196s-196-87.753906-196-196 87.753906-196 196-196 196 87.753906 196 196zm0 0" fill="#19cffc"/><path d="m256 60c-.117188 0-.238281.003906-.355469.003906v391.992188c.117188 0 .238281.003906.355469.003906 108.246094 0 196-87.753906 196-196 0-108.25-87.753906-196-196-196zm0 0" fill="#4ab8f7"/><path d="m413.238281 256c0 86.839844-70.398437 157.238281-157.238281 157.238281s-157.238281-70.398437-157.238281-157.238281 70.398437-157.238281 157.238281-157.238281 157.238281 70.398437 157.238281 157.238281zm0 0" fill="#4a7aff"/><path d="m256 98.761719c-.117188 0-.238281.003906-.355469.003906v314.46875c.117188 0 .238281.003906.355469.003906 86.839844 0 157.238281-70.398437 157.238281-157.238281s-70.398437-157.238281-157.238281-157.238281zm0 0" fill="#2864f0"/><path d="m182.589844 202.191406c-27.394532 0-49.683594-22.285156-49.683594-49.679687 0-27.390625 22.289062-49.675781 49.683594-49.675781 27.390625 0 49.675781 22.285156 49.675781 49.675781 0 27.394531-22.285156 49.679687-49.675781 49.679687zm0-63.359375c-7.542969 0-13.683594 6.136719-13.683594 13.679688s6.140625 13.679687 13.683594 13.679687c7.539062 0 13.675781-6.136718 13.675781-13.679687s-6.136719-13.679688-13.675781-13.679688zm0 0" fill="#fff"/><path d="m284.234375 413.238281h-39v-279.105469h130.113281v39h-91.113281zm0 0" fill="#fff"/><path d="m375.347656 173.132812v-39h-119.703125v279.105469h28.589844v-131.738281h91.113281v-39h-91.113281v-69.367188zm0 0" fill="#e9edf5"/></svg>