<svg height="512pt" viewBox="0 0 512 512" width="512pt" xmlns="http://www.w3.org/2000/svg"><path d="m512 256c0 141.386719-114.613281 256-256 256s-256-114.613281-256-256 114.613281-256 256-256 256 114.613281 256 256zm0 0" fill="#4a7aff"/><path d="m509.59375 291.105469-54.953125-54.957031-4.652344 11.269531-85.160156-85.019531-208.902344 1 29.246094 29.246093-16.128906 1.164063-52.410157-52.410156-41.117187 21 35.589844 35.59375-44.105469 3.183593 39.824219 39.820313-2.488281-.042969-22.003907-22.003906-33.042969 21 37.527344 37.53125-30.488281 1.246093 34.613281 34.613282-23.941406 4.160156 34.527344 34.527344-13.601563 6.25 153.289063 153.289062c4.894531.277344 9.820312.433594 14.785156.433594 129.472656 0 236.480469-96.125 253.59375-220.894531zm0 0" fill="#2864f0"/><path d="m49.289062 218.949219h33.042969v21h-33.042969zm0 0" fill="#fff"/><path d="m399.394531 211.183594c-1.988281 0-3.953125.082031-5.902343.238281-7.664063-39.609375-42.519532-69.523437-84.367188-69.523437-3.140625 0-6.238281.171874-9.289062.5h-143.910157v21h96.351563c-5.578125 4.925781-10.515625 10.566406-14.664063 16.777343h-170.613281v21h112.1875c-7.28125 4.910157-13.753906 10.921875-19.21875 17.773438h-52.378906v21h40.035156c-4.105469 10.035156-6.386719 21.011719-6.386719 32.527343 0 47.464844 38.476563 85.941407 85.941407 85.941407h172.214843c40.65625 0 73.617188-32.960938 73.617188-73.617188s-32.957031-73.617187-73.617188-73.617187zm0 0" fill="#fff"/><path d="m466.953125 255.539062h-324.039063c-.144531.722657-.253906 1.457032-.378906 2.1875h-86.207031v21h85.160156c.441407 6.125 1.519531 12.070313 3.179688 17.773438h-77.667969v21h86.976562c4.570313 7.417969 10.246094 14.078125 16.785157 19.773438h-82.835938v21l311.46875.144531c40.660157 0 73.617188-32.957031 73.617188-73.617188 0-10.402343-2.167969-20.292969-6.058594-29.261719zm0 0" fill="#e9edf5"/><path d="m75.515625 141.398438h41.117187v21h-41.117187zm0 0" fill="#fff"/></svg>