<svg height="512pt" viewBox="0 0 512 512" width="512pt" xmlns="http://www.w3.org/2000/svg"><path d="m512 256c0 141.386719-114.613281 256-256 256s-256-114.613281-256-256 114.613281-256 256-256 256 114.613281 256 256zm0 0" fill="#4a7aff"/><path d="m512 256c0-3.125-.074219-6.230469-.1875-9.324219l-93.503906-114.007812-301.785156 271.996093 130.527343 107.164063c2.972657.101563 5.953125.171875 8.949219.171875 141.386719 0 256-114.613281 256-256zm0 0" fill="#2864f0"/><path d="m459.851562 256c0 112.585938-91.265624 203.851562-203.851562 203.851562s-203.851562-91.265624-203.851562-203.851562 91.265624-203.851562 203.851562-203.851562 203.851562 91.265624 203.851562 203.851562zm0 0" fill="#414952"/><path d="m459.851562 256c0-112.46875-91.082031-203.660156-203.507812-203.847656v407.695312c112.425781-.1875 203.507812-91.378906 203.507812-203.847656zm0 0" fill="#333940"/><path d="m421.367188 256c0 91.332031-74.035157 165.367188-165.367188 165.367188s-165.367188-74.035157-165.367188-165.367188 74.035157-165.367188 165.367188-165.367188 165.367188 74.035157 165.367188 165.367188zm0 0" fill="#fff"/><path d="m421.367188 256c0-91.214844-73.851563-165.179688-165.023438-165.363281v330.726562c91.171875-.183593 165.023438-74.148437 165.023438-165.363281zm0 0" fill="#e9edf5"/><path d="m146.40625 365.59375 78.847656-140.339844 140.339844-78.847656-78.847656 140.339844zm0 0" fill="#ff6155"/><path d="m147.042969 364.460938-.636719 1.132812 140.339844-78.847656 78.847656-140.339844-.390625.21875zm0 0" fill="#ff4545"/><path d="m225.253906 225.253906 140.339844-78.847656-78.847656 140.339844zm0 0" fill="#19cffc"/><path d="m255.832031 255.832031 30.914063 30.914063 78.847656-140.339844-.390625.21875zm0 0" fill="#4ab8f7"/><path d="m243 102h26v61.332031h-26zm0 0" fill="#9196aa"/><path d="m256.34375 102h12.65625v61.332031h-12.65625zm0 0" fill="#7e8596"/><path d="m243 348.667969h26v61.332031h-26zm0 0" fill="#9196aa"/><path d="m256.34375 348.667969h12.65625v61.332031h-12.65625zm0 0" fill="#7e8596"/><path d="m410 243v26h-61.332031v-26zm0 0" fill="#7e8596"/><path d="m163.332031 243v26h-61.332031v-26zm0 0" fill="#9196aa"/></svg>