<svg height="512pt" viewBox="0 0 512 512" width="512pt" xmlns="http://www.w3.org/2000/svg"><path d="m512 256c0 141.386719-114.613281 256-256 256s-256-114.613281-256-256 114.613281-256 256-256 256 114.613281 256 256zm0 0" fill="#414952"/><path d="m512 256c0-10.578125-.65625-21-1.902344-31.242188l-86.382812-86.382812-8.609375 7.011719-90.730469-90.730469-221.789062 184.023438 46.96875 46.96875-9.152344 97.871093-25.5-25.269531-15.546875 11.382812 38.722656 38.726563-.164063 1.75-53.136718-53.136719-14.625 12.707032 34.15625 34.070312-4.953125.894531 101.347656 101.347657c17.8125 3.921874 36.308594 6.007812 55.296875 6.007812 141.386719 0 256-114.613281 256-256zm0 0" fill="#333940"/><g fill="#fff"><path d="m136 210.109375h20v220.488281h-20zm0 0"/><path d="m180 210.109375h20v220.488281h-20zm0 0"/><path d="m224 210.109375h20v220.488281h-20zm0 0"/></g><path d="m268 210.109375h20v220.488281h-20zm0 0" fill="#e9edf5"/><path d="m312 210.109375h20v220.488281h-20zm0 0" fill="#e9edf5"/><path d="m356 210.109375h20v220.488281h-20zm0 0" fill="#e9edf5"/><path d="m357.304688 265.265625c44.636718 0 80.824218-36.1875 80.824218-80.824219 0-44.640625-36.1875-80.824218-80.824218-80.824218-2.183594 0-4.34375.085937-6.484376.257812-8.414062-43.488281-46.679687-76.328125-92.625-76.328125-35.78125 0-66.910156 19.917969-82.90625 49.269531-2.332031-.171875-4.6875-.261718-7.0625-.261718-52.109374 0-94.355468 42.242187-94.355468 94.351562 0 52.113281 42.246094 94.355469 94.355468 94.355469h189.078126zm0 0" fill="#19cffc"/><path d="m357.304688 103.617188c-2.183594 0-4.34375.089843-6.484376.257812-8.414062-43.484375-46.679687-76.328125-92.625-76.328125-.882812 0-1.757812.023437-2.632812.046875v237.667969h101.742188c44.636718 0 80.824218-36.183594 80.824218-80.820313 0-44.636718-36.1875-80.824218-80.824218-80.824218zm0 0" fill="#4ab8f7"/><path d="m116 397.75c0 5.386719-4.363281 9.75-9.75 9.75s-9.75-4.363281-9.75-9.75 4.363281-9.75 9.75-9.75 9.75 4.363281 9.75 9.75zm0 0" fill="#fff"/><path d="m116 362.738281c0 5.386719-4.363281 9.75-9.75 9.75s-9.75-4.363281-9.75-9.75c0-5.382812 4.363281-9.75 9.75-9.75s9.75 4.367188 9.75 9.75zm0 0" fill="#fff"/><path d="m86.75 362.738281c0 5.386719-4.363281 9.75-9.75 9.75s-9.75-4.363281-9.75-9.75c0-5.382812 4.363281-9.75 9.75-9.75s9.75 4.367188 9.75 9.75zm0 0" fill="#fff"/><path d="m415.5 397.75c0 5.386719-4.363281 9.75-9.75 9.75s-9.75-4.363281-9.75-9.75 4.363281-9.75 9.75-9.75 9.75 4.363281 9.75 9.75zm0 0" fill="#e9edf5"/><path d="m415.5 362.738281c0 5.386719-4.363281 9.75-9.75 9.75s-9.75-4.363281-9.75-9.75c0-5.382812 4.363281-9.75 9.75-9.75s9.75 4.367188 9.75 9.75zm0 0" fill="#e9edf5"/><path d="m444.75 362.738281c0 5.386719-4.363281 9.75-9.75 9.75s-9.75-4.363281-9.75-9.75c0-5.382812 4.363281-9.75 9.75-9.75s9.75 4.367188 9.75 9.75zm0 0" fill="#e9edf5"/></svg>