<svg height="512pt" viewBox="0 0 512 512" width="512pt" xmlns="http://www.w3.org/2000/svg"><path d="m512 256c0 141.386719-114.613281 256-256 256s-256-114.613281-256-256 114.613281-256 256-256 256 114.613281 256 256zm0 0" fill="#4a7aff"/><path d="m512 256c0-8.261719-.40625-16.425781-1.171875-24.488281l-110.804687-110.804688-100.503907 1.996094 48.515625 47.308594-27.027344 3.902343-99.269531-99.265624-7.136719 15.34375-24.214843-24.21875-5.796875 34.410156-25.546875-25.546875-11.207031 29.65625-28.539063 10.089843 26.433594 26.433594-35.308594 4.921875 39.042969 39.042969-78.941406 6.230469 93.371093 93.371093-65.132812 12.722657 39.445312 39.445312-54.183593 6.519531 168.890624 168.890626c1.03125.011718 2.054688.039062 3.085938.039062 141.386719 0 256-114.613281 256-256zm0 0" fill="#2864f0"/><path d="m352.261719 241.136719h-199.03125v-21h199.03125c26.859375 0 48.714843-21.855469 48.714843-48.71875 0-26.859375-21.855468-48.714844-48.714843-48.714844h-52.742188v-21h52.742188c38.4375 0 69.714843 31.273437 69.714843 69.714844 0 38.441406-31.277343 69.71875-69.714843 69.71875zm0 0" fill="#96e8ff"/><path d="m70.523438 170.011719h277.511718v21h-277.511718zm0 0" fill="#96e8ff"/><g fill="#80dbff"><path d="m84.023438 322.070312h144.035156v21h-144.035156zm0 0"/><path d="m98.761719 276.105469h144.035156v21h-144.035156zm0 0"/><path d="m165.210938 382.199219h88.136718v21h-88.136718zm0 0"/></g><path d="m400.023438 340.367188v-15.59375h-53.34375l15.75-15.75h28.730468v-15.59375h-24.152344v-24.152344h-15.59375v28.707031l-15.761718 15.761719v-53.34375h-15.59375v53.34375l-15.75-15.75v-28.730469h-15.59375v24.152344h-24.152344v15.59375h28.707031l15.761719 15.761719h-53.34375v15.59375h53.34375l-15.75 15.75h-28.730469v15.59375h24.152344v24.152343h15.59375v-28.707031l15.761719-15.761719v53.34375h15.59375v-53.34375l15.75 15.75v28.730469h15.59375v-24.152344h24.152344v-15.59375h-28.707032l-15.761718-15.761718zm0 0" fill="#e9edf5"/><path d="m254.753906 145.738281v-15.59375h-53.34375l15.75-15.75h28.730469v-15.59375h-24.152344v-24.152343h-15.59375v28.707031l-15.757812 15.761719v-53.34375h-15.597657v53.34375l-15.746093-15.75v-28.730469h-15.597657v24.152343h-24.148437v15.59375h28.707031l15.761719 15.761719h-53.34375v15.59375h53.34375l-15.75 15.75h-28.734375v15.59375h24.15625v24.152344h15.59375v-28.707031l15.757812-15.761719v53.34375h15.597657v-53.34375l15.746093 15.75v28.730469h15.59375v-24.152344h24.152344v-15.59375h-28.707031l-15.761719-15.761719zm0 0" fill="#fff"/></svg>