<svg height="512pt" viewBox="0 0 512 512" width="512pt" xmlns="http://www.w3.org/2000/svg"><path d="m512 256c0 141.386719-114.613281 256-256 256s-256-114.613281-256-256 114.613281-256 256-256 256 114.613281 256 256zm0 0" fill="#414952"/><path d="m512 256c0-18.042969-1.878906-35.648438-5.429688-52.640625l-94.054687-94.050781-22.671875 22.671875-69.28125-69.277344-20.554688 39.398437 28.847657 28.847657-28.578125 41.511719-49.828125-49.828126-14.535157 14.53125 52.511719 52.511719-153.257812 222.609375 98.753906 98.757813c7.28125.621093 14.640625.957031 22.078125.957031 141.386719 0 256-114.613281 256-256zm0 0" fill="#333940"/><path d="m393.105469 197.003906c0 45.738282-37.078125 82.816406-82.820313 82.816406-45.738281 0-82.816406-37.078124-82.816406-82.816406 0-45.742187 37.078125-82.820312 82.816406-82.820312 45.742188 0 82.820313 37.078125 82.820313 82.820312zm0 0" fill="#fdba12"/><path d="m310.285156 114.183594c-.265625 0-.527344.015625-.796875.019531v165.601563c.269531 0 .53125.019531.796875.019531 45.742188 0 82.820313-37.082031 82.820313-82.820313 0-45.742187-37.078125-82.820312-82.820313-82.820312zm0 0" fill="#ffa300"/><path d="m365.558594 197.003906c0 30.523438-24.746094 55.269532-55.273438 55.269532-30.523437 0-55.269531-24.746094-55.269531-55.269532 0-30.527344 24.746094-55.273437 55.269531-55.273437 30.527344 0 55.273438 24.746093 55.273438 55.273437zm0 0" fill="#fcda15"/><path d="m310.285156 141.730469c-.265625 0-.527344.015625-.796875.019531v110.503906c.269531.003906.53125.019532.796875.019532 30.527344 0 55.273438-24.746094 55.273438-55.269532 0-30.527344-24.746094-55.273437-55.273438-55.273437zm0 0" fill="#efc820"/><path d="m300.007812 62.703125h20.558594v39.402344h-20.558594zm0 0" fill="#fdba12"/><path d="m309.488281 62.703125h11.078125v39.398437h-11.078125zm0 0" fill="#ffa300"/><path d="m300.007812 291.902344h20.558594v39.398437h-20.558594zm0 0" fill="#fdba12"/><path d="m444.585938 186.722656v20.558594h-39.398438v-20.558594zm0 0" fill="#ffa300"/><path d="m215.386719 186.722656v20.558594h-39.398438v-20.558594zm0 0" fill="#fdba12"/><path d="m397.980469 94.769531 14.535156 14.535157-27.859375 27.859374-14.535156-14.535156zm0 0" fill="#ffa300"/><path d="m235.914062 256.835938 14.535157 14.535156-27.859375 27.859375-14.535156-14.535157zm0 0" fill="#fdba12"/><path d="m208.054688 109.308594 14.535156-14.535156 27.859375 27.859374-14.535157 14.535157zm0 0" fill="#fdba12"/><path d="m370.117188 271.375 14.535156-14.535156 27.859375 27.859375-14.535157 14.535156zm0 0" fill="#ffa300"/><path d="m371.011719 303.988281c0 78.859375-63.929688 142.789063-142.789063 142.789063s-142.785156-63.929688-142.785156-142.789063c0-78.855469 63.925781-142.785156 142.785156-142.785156s142.789063 63.929687 142.789063 142.785156zm0 0" fill="#19cffc"/><path d="m228.222656 161.203125c-.183594 0-.367187.007813-.550781.007813v285.558593c.183594 0 .367187.007813.550781.007813 78.859375 0 142.789063-63.929688 142.789063-142.789063 0-78.855469-63.929688-142.785156-142.789063-142.785156zm0 0" fill="#4ab8f7"/><path d="m173.320312 229.53125h-66.953124c-13.273438 21.683594-20.929688 47.175781-20.929688 74.457031 0 18.398438 3.480469 35.980469 9.816406 52.128907h26.832032c20.558593 0 37.226562-16.667969 37.226562-37.226563 0-5.300781-1.113281-10.335937-3.109375-14.902344h17.117187c20.5625 0 37.230469-16.667969 37.230469-37.226562 0-20.5625-16.667969-37.230469-37.230469-37.230469zm0 0" fill="#fff"/><path d="m371.011719 303.988281c0-48.359375-24.050781-91.101562-60.839844-116.933593.371094 4.050781 1.382813 7.917968 2.945313 11.488281h-17.117188c-20.5625 0-37.230469 16.667969-37.230469 37.230469 0 20.558593 16.667969 37.226562 37.230469 37.226562h17.457031c-10.773437 6.523438-17.972656 18.355469-17.972656 31.867188 0 5.300781 1.113281 10.335937 3.109375 14.898437h-17.117188c-20.5625 0-37.230468 16.667969-37.230468 37.230469 0 20.558594 16.667968 37.226562 37.230468 37.226562h57.40625c20.078126-24.59375 32.128907-56.003906 32.128907-90.234375zm0 0" fill="#e9edf5"/></svg>