<svg height="512pt" viewBox="0 0 512 512" width="512pt" xmlns="http://www.w3.org/2000/svg"><path d="m512 256c0 141.386719-114.613281 256-256 256s-256-114.613281-256-256 114.613281-256 256-256 256 114.613281 256 256zm0 0" fill="#414952"/><path d="m493.394531 351.945312-281.136719-281.132812-88.921874 74.191406 2.996093 250.335938 116.320313 116.316406c4.417968.226562 8.871094.34375 13.347656.34375 107.453125 0 199.429688-66.210938 237.394531-160.054688zm0 0" fill="#333940"/><path d="m126.332031 395.339844-2.796875-2.800782zm0 0" fill="#333940"/><path d="m325.601562 348.296875c-89.414062 0-161.898437-72.484375-161.898437-161.898437 0-45.277344 18.597656-86.207032 48.558594-115.585938-83.988281 19.761719-146.511719 95.167969-146.511719 185.1875 0 105.070312 85.179688 190.25 190.25 190.25 90.019531 0 165.425781-62.523438 185.1875-146.507812-29.378906 29.957031-70.308594 48.554687-115.585938 48.554687zm0 0" fill="#fff"/><path d="m325.601562 348.296875c-44.914062 0-85.554687-18.296875-114.882812-47.832031l-89.648438 89.648437c34.457032 34.667969 82.1875 56.136719 134.929688 56.136719 90.019531 0 165.425781-62.523438 185.1875-146.507812-29.378906 29.957031-70.308594 48.554687-115.585938 48.554687zm0 0" fill="#e9edf5"/></svg>