<svg height="512pt" viewBox="0 0 512 512" width="512pt" xmlns="http://www.w3.org/2000/svg"><path d="m512 256c0 141.386719-114.613281 256-256 256s-256-114.613281-256-256 114.613281-256 256-256 256 114.613281 256 256zm0 0" fill="#414952"/><path d="m259.195312 511.960938c139.464844-1.710938 252.074219-114.925782 252.789063-254.632813l-95.8125-95.808594-10.527344 7.46875-76.828125-76.832031-226.367187 178.84375 51.445312 51.785156.457031 5.816406-9.601562-9.601562-3.921875 16.5625-26.078125 13.4375 13.535156 13.535156-2.675781 2.679688 51.898437 51.898437-4.632812 3.171875 13.535156 13.535156-2.675781 2.675782zm0 0" fill="#333940"/><path d="m357.304688 297.714844c44.636718 0 80.824218-36.183594 80.824218-80.824219 0-44.636719-36.1875-80.824219-80.824218-80.824219-2.183594 0-4.34375.089844-6.484376.261719-8.414062-43.488281-46.679687-76.328125-92.625-76.328125-35.78125 0-66.910156 19.917969-82.90625 49.269531-2.332031-.171875-4.6875-.261719-7.0625-.261719-52.109374 0-94.355468 42.242188-94.355468 94.351563 0 52.113281 42.246094 94.355469 94.355468 94.355469zm0 0" fill="#fff"/><path d="m357.304688 136.070312c-2.183594 0-4.34375.085938-6.484376.257813-8.414062-43.488281-46.679687-76.328125-92.625-76.328125-.855468 0-1.703124.023438-2.550781.042969v237.671875h101.660157c44.636718 0 80.824218-36.183594 80.824218-80.824219 0-44.636719-36.1875-80.820313-80.824218-80.820313zm0 0" fill="#e9edf5"/><path d="m397.25 339h-12.929688l9.144532-9.140625-7.074219-7.074219-9.140625 9.144532v-12.929688h-10v12.929688l-9.140625-9.144532-7.074219 7.074219 9.144532 9.140625h-12.929688v10h12.929688l-9.144532 9.140625 7.074219 7.074219 9.140625-9.144532v12.929688h10v-12.929688l9.140625 9.144532 7.074219-7.074219-9.144532-9.140625h12.929688zm0 0" fill="#e9edf5"/><path d="m164.75 339h-12.929688l9.144532-9.140625-7.074219-7.074219-9.140625 9.144532v-12.929688h-10v12.929688l-9.140625-9.144532-7.074219 7.074219 9.144532 9.140625h-12.929688v10h12.929688l-9.144532 9.140625 7.074219 7.074219 9.140625-9.144532v12.929688h10v-12.929688l9.140625 9.144532 7.074219-7.074219-9.144532-9.140625h12.929688zm0 0" fill="#fff"/><path d="m281 339h-12.929688l9.144532-9.140625-7.074219-7.074219-9.140625 9.144532v-12.929688h-10v12.929688l-9.140625-9.144532-7.074219 7.074219 9.144532 9.140625h-12.929688v10h12.929688l-9.144532 9.140625 7.074219 7.074219 9.140625-9.144532v12.929688h10v-12.929688l9.140625 9.144532 7.074219-7.074219-9.144532-9.140625h12.929688zm0 0" fill="#fff"/><path d="m281 339h-12.929688l9.144532-9.140625-7.074219-7.074219-9.140625 9.144532v-12.929688h-5.355469v50h5.355469v-12.929688l9.140625 9.144532 7.074219-7.074219-9.144532-9.140625h12.929688zm0 0" fill="#e9edf5"/><path d="m222.875 410.285156h-12.929688l9.144532-9.144531-7.074219-7.070313-9.140625 9.140626v-12.925782h-10v12.925782l-9.140625-9.140626-7.074219 7.070313 9.144532 9.140625h-12.929688v10h12.929688l-9.144532 9.144531 7.074219 7.070313 9.140625-9.140625v12.929687h10v-12.929687l9.140625 9.140625 7.074219-7.070313-9.144532-9.140625h12.929688zm0 0" fill="#fff"/><path d="m339.125 410.285156h-12.929688l9.144532-9.144531-7.074219-7.070313-9.140625 9.140626v-12.925782h-10v12.925782l-9.140625-9.140626-7.074219 7.070313 9.144532 9.140625h-12.929688v10h12.929688l-9.144532 9.144531 7.074219 7.070313 9.140625-9.140625v12.929687h10v-12.929687l9.140625 9.140625 7.074219-7.070313-9.144532-9.140625h12.929688zm0 0" fill="#e9edf5"/></svg>