<svg height="512pt" viewBox="0 0 512 512" width="512pt" xmlns="http://www.w3.org/2000/svg"><path d="m512 256c0 141.386719-114.613281 256-256 256s-256-114.613281-256-256 114.613281-256 256-256 256 114.613281 256 256zm0 0" fill="#4a7aff"/><path d="m117.5 241-57.5 30 237.613281 237.613281c121.589844-19.878906 214.386719-125.398437 214.386719-252.613281 0-7.464844-.339844-14.847656-.964844-22.148438l-105.835937-105.835937-43.679688 22.503906-90.519531-90.519531-30 57.5 68.222656 68.222656-51.144531 51.140625-89.40625-89.40625-21.210937 21.214844 89.40625 89.40625-51.144532 51.144531zm0 0" fill="#2864f0"/><path d="m376.871094 256c0 66.753906-54.117188 120.871094-120.871094 120.871094s-120.871094-54.117188-120.871094-120.871094 54.117188-120.871094 120.871094-120.871094 120.871094 54.117188 120.871094 120.871094zm0 0" fill="#fdba12"/><path d="m256 135.128906c-.117188 0-.238281.003906-.355469.003906v241.734376c.117188 0 .234375.003906.355469.003906 66.753906 0 120.871094-54.113282 120.871094-120.867188 0-66.757812-54.117188-120.875-120.871094-120.875zm0 0" fill="#ffa300"/><path d="m336.667969 256c0 44.550781-36.117188 80.667969-80.667969 80.667969s-80.667969-36.117188-80.667969-80.667969 36.117188-80.667969 80.667969-80.667969 80.667969 36.117188 80.667969 80.667969zm0 0" fill="#fcda15"/><path d="m256 175.332031c-.121094 0-.238281.007813-.355469.011719v161.3125c.117188 0 .234375.007812.355469.007812 44.550781 0 80.667969-36.113281 80.667969-80.664062s-36.117188-80.667969-80.667969-80.667969zm0 0" fill="#efc820"/><path d="m241 60h30v57.5h-30zm0 0" fill="#fdba12"/><path d="m255.644531 60h15.355469v57.5h-15.355469zm0 0" fill="#ffa300"/><path d="m241 394.5h30v57.5h-30zm0 0" fill="#fdba12"/><path d="m452 241v30h-57.5v-30zm0 0" fill="#ffa300"/><path d="m117.5 241v30h-57.5v-30zm0 0" fill="#fdba12"/><path d="m383.984375 106.796875 21.214844 21.214844-40.660157 40.65625-21.210937-21.210938zm0 0" fill="#ffa300"/><g fill="#fdba12"><path d="m147.460938 343.324219 21.214843 21.214843-40.660156 40.65625-21.214844-21.210937zm0 0"/><path d="m106.796875 128.015625 21.214844-21.214844 40.65625 40.660157-21.210938 21.210937zm0 0"/><path d="m343.324219 364.539062 21.210937-21.210937 40.660156 40.65625-21.214843 21.214844zm0 0"/></g><path d="m4.773438 305.359375c23.003906 117.761719 126.730468 206.640625 251.226562 206.640625s228.222656-88.878906 251.226562-206.640625zm0 0" fill="#19cffc"/><path d="m255.644531 305.359375v206.636719c.117188 0 .238281.003906.355469.003906 124.496094 0 228.222656-88.878906 251.226562-206.640625zm0 0" fill="#4ab8f7"/><path d="m77.15625 321.859375h357.683594v14.808594h-357.683594zm0 0" fill="#4a7aff"/><path d="m255.644531 321.859375h179.195313v14.804687h-179.195313zm0 0" fill="#2864f0"/><path d="m106.800781 356.582031h298.398438v15.90625h-298.398438zm0 0" fill="#4a7aff"/><path d="m255.644531 356.582031h149.554688v15.90625h-149.554688zm0 0" fill="#2864f0"/><path d="m144.695312 396.546875h222.609376v15.90625h-222.609376zm0 0" fill="#4a7aff"/><path d="m255.644531 396.546875h111.660157v15.90625h-111.660157zm0 0" fill="#2864f0"/></svg>