<svg height="512pt" viewBox="0 0 512 512" width="512pt" xmlns="http://www.w3.org/2000/svg"><path d="m512 256c0 141.386719-114.613281 256-256 256s-256-114.613281-256-256 114.613281-256 256-256 256 114.613281 256 256zm0 0" fill="#4a7aff"/><path d="m512 256c0-2.875-.066406-5.734375-.160156-8.585938l-133.503906-133.503906-263.308594 265.710938 132.210937 132.214844c2.910157.097656 5.828125.164062 8.761719.164062 141.386719 0 256-114.613281 256-256zm0 0" fill="#2864f0"/><path d="m443.5 256c0 103.554688-83.945312 187.5-187.5 187.5s-187.5-83.945312-187.5-187.5 83.945312-187.5 187.5-187.5 187.5 83.945312 187.5 187.5zm0 0" fill="#414952"/><path d="m68.507812 255.539062c0 .152344-.007812.308594-.007812.460938 0 103.554688 83.945312 187.5 187.5 187.5s187.5-83.945312 187.5-187.5c0-.152344-.003906-.308594-.007812-.460938zm0 0" fill="#333940"/><path d="m160.09375 256c0-87.753906 60.289062-161.417969 141.703125-181.855469-14.65625-3.679687-29.996094-5.644531-45.796875-5.644531-103.554688 0-187.5 83.945312-187.5 187.5s83.945312 187.5 187.5 187.5c15.800781 0 31.140625-1.964844 45.796875-5.644531-81.414063-20.4375-141.703125-94.101563-141.703125-181.855469zm0 0" fill="#fdba12"/><path d="m160.09375 256c0-.152344.007812-.308594.007812-.460938h-91.59375c0 .152344-.007812.308594-.007812.460938 0 103.554688 83.945312 187.5 187.5 187.5 15.800781 0 31.140625-1.964844 45.796875-5.644531-81.414063-20.4375-141.703125-94.101563-141.703125-181.855469zm0 0" fill="#ffa300"/><path d="m383.003906 171.742188c0 28.023437-22.71875 50.738281-50.742187 50.738281-28.023438 0-50.738281-22.714844-50.738281-50.738281 0-28.023438 22.714843-50.742188 50.738281-50.742188 28.023437 0 50.742187 22.71875 50.742187 50.742188zm0 0" fill="#9196aa"/><path d="m411.503906 283.800781c0 12.042969-9.761718 21.804688-21.804687 21.804688-12.039063 0-21.800781-9.761719-21.800781-21.804688 0-12.039062 9.761718-21.800781 21.800781-21.800781 12.042969 0 21.804687 9.761719 21.804687 21.800781zm0 0" fill="#7e8596"/><path d="m249.953125 162.46875c0 13.230469-10.722656 23.953125-23.953125 23.953125s-23.953125-10.722656-23.953125-23.953125 10.722656-23.953125 23.953125-23.953125 23.953125 10.722656 23.953125 23.953125zm0 0" fill="#9196aa"/><path d="m343.289062 340.179688c0 30.71875-24.902343 55.621093-55.621093 55.621093s-55.621094-24.902343-55.621094-55.621093 24.902344-55.621094 55.621094-55.621094 55.621093 24.902344 55.621093 55.621094zm0 0" fill="#7e8596"/></svg>