<svg height="512pt" viewBox="0 0 512 512" width="512pt" xmlns="http://www.w3.org/2000/svg"><path d="m512 256c0 141.386719-114.613281 256-256 256s-256-114.613281-256-256 114.613281-256 256-256 256 114.613281 256 256zm0 0" fill="#414952"/><path d="m295.855469 508.90625c121.238281-18.953125 214.257812-122.988281 216.097656-249.109375l-137.09375-137.09375h-90.679687l39.761718 39.765625-10.152344 14.460938-75.226562-75.226563-74.816406 21 48.292968 48.292969-122.238281 9.691406 67.34375 67.34375-37.800781 11.074219 26.859375 26.863281-64.191406 9.089844zm0 0" fill="#333940"/><g fill="#fff"><path d="m328.945312 223.230469h-168.941406v-21h168.941406c21.925782 0 39.765626-17.835938 39.765626-39.761719s-17.839844-39.765625-39.765626-39.765625h-44.765624v-21h44.765624c33.507813 0 60.765626 27.261719 60.765626 60.765625s-27.257813 60.761719-60.765626 60.761719zm0 0"/><path d="m119.34375 238.105469h88.808594v21h-88.808594zm0 0"/><path d="m238.5625 238.105469h173.59375v21h-173.59375zm0 0"/><path d="m360.539062 398.296875h-39.097656v-21h39.097656c22.671876 0 41.117188-18.445313 41.117188-41.121094 0-22.671875-18.445312-41.117187-41.117188-41.117187h-162.003906v-21h162.003906c34.25 0 62.117188 27.867187 62.117188 62.117187 0 34.253907-27.867188 62.121094-62.117188 62.121094zm0 0"/><path d="m249.167969 384.921875h-19.59375v-21h19.59375c8.476562 0 15.375-6.894531 15.375-15.371094 0-8.476562-6.894531-15.375-15.375-15.375h-81.203125v-21h81.203125c20.058593 0 36.375 16.316407 36.375 36.375 0 20.054688-16.316407 36.371094-36.375 36.371094zm0 0"/><path d="m89.796875 159.6875h235.5625v21h-235.5625zm0 0"/></g><path d="m328.945312 101.703125h-44.765624v21h44.765624c21.925782 0 39.765626 17.839844 39.765626 39.765625s-17.839844 39.761719-39.765626 39.761719h-77.550781v21h77.550781c33.507813 0 60.765626-27.257813 60.765626-60.761719s-27.257813-60.765625-60.765626-60.765625zm0 0" fill="#e9edf5"/><path d="m251.394531 238.105469h160.761719v21h-160.761719zm0 0" fill="#e9edf5"/><path d="m360.539062 274.058594h-109.144531v21h109.140625c22.675782 0 41.121094 18.445312 41.121094 41.121094 0 22.671874-18.445312 41.117187-41.121094 41.117187h-39.09375v21h39.09375c34.253906 0 62.121094-27.867187 62.121094-62.117187 0-34.253907-27.867188-62.121094-62.117188-62.121094zm0 0" fill="#e9edf5"/><path d="m285.542969 348.550781c0-19.308593-15.125-35.144531-34.148438-36.300781v21.105469c7.421875 1.082031 13.148438 7.472656 13.148438 15.195312 0 7.71875-5.726563 14.109375-13.148438 15.191407v21.105468c19.023438-1.152344 34.148438-16.988281 34.148438-36.296875zm0 0" fill="#e9edf5"/><path d="m251.394531 159.6875h73.964844v21h-73.964844zm0 0" fill="#e9edf5"/><path d="m163.746094 101.703125h74.816406v21h-74.816406zm0 0" fill="#fff"/><path d="m82.011719 274.058594h77.992187v21h-77.992187zm0 0" fill="#fff"/></svg>